<?xml version="1.0" encoding="UTF-8"?>
<svg id="_Слой_2" data-name="Слой 2" xmlns="http://www.w3.org/2000/svg" viewBox="0 0 1957.76 299.66">
  <g id="_Слой_1-2" data-name="Слой 1">
    <path d="m1.81,281.75c151.11-58.61,318.76-118.6,478.19-55.01,36.48,14.55,71.3,32.96,107.92,47.18,34.35,13.34,70.06,21.79,106.96,23.06,36.66,1.27,73.59-4,108.41-15.53,16.97-5.62,33.41-12.75,49.13-21.26,17.71-9.58,35.26-20.46,56.11-20.27,31.95.28,59.11,22.36,85.31,37.95s54.7,26,86.08,20.09c70.97-13.38,112.48-79.09,157.82-128.36,24.74-26.88,53.18-50.87,88.8-61.43,38.13-11.32,78.96-6.99,116.7,3.69s73.39,29.49,109.35,46.47c32.14,15.19,66.5,28.81,102.64,27.99,52.96-1.2,96.48-33.67,134.12-67.84,40.24-36.53,77.88-79.47,127.94-102.87,12.57-5.88,25.74-10.12,39.38-12.68,1.9-.36,1.09-3.25-.8-2.89-52.72,9.89-94.05,46.25-131.92,81.89s-79.24,79.82-132.36,95.62c-75,22.31-141.22-27.7-207.37-54.63s-142.95-38.31-204.75,4.95c-57.71,40.39-89.36,107.96-149.25,145.95-31.71,20.12-69.41,30.22-105.63,16.25-30.02-11.58-54.44-33.82-84.13-46.06-12.18-5.02-25.23-7.98-38.45-6.85-17.02,1.46-31.95,9.9-46.62,17.98-34.93,19.22-72.79,31.94-112.42,36.77-38.37,4.67-77.59,2.15-114.95-7.82s-74.24-27.93-110.3-44.3c-35.26-16-71.06-30.18-109.28-37.33-38.29-7.17-77.49-8.23-116.25-4.88-80.4,6.93-158.19,31.59-233.53,59.37-19.3,7.11-38.5,14.49-57.67,21.93-1.78.69-1.01,3.59.8,2.89h0Z"/>
  </g>
</svg>