<?xml version="1.0" encoding="UTF-8"?>
<svg id="_Слой_2" data-name="Слой 2" xmlns="http://www.w3.org/2000/svg" viewBox="0 0 465.37 115.96">
  <g id="Layer_2" data-name="Layer 2">
    <path d="m175.34,11.55c0,2-1.36,4.02-3.95,4.02-.96,0-1.92-.34-2.91-1.02-2.85-2.18-6.1-4.3-11.52-4.3-10.03,0-17.04,7.48-17.04,18.2s7.01,18.2,17.04,18.2c5.42,0,8.66-2.12,11.52-4.3,1-.69,1.95-1.02,2.91-1.02,2.59,0,3.95,2.02,3.95,4.02,0,1.07-.44,2.01-1.38,2.96-3.91,4.05-10.26,6.47-16.99,6.47-15.27,0-25.94-10.82-25.94-26.32s10.67-26.32,25.94-26.32c6.73,0,13.08,2.42,17,6.47.94.94,1.38,1.88,1.38,2.95Zm84.05,37.85c4.2,3.26,11.17,5.37,17.75,5.37,12.36,0,19.74-5.64,19.74-15.08s-7.44-12.72-17.96-15.79c-9.17-2.68-12.64-4.07-12.64-8.13,0-2.83,1.98-6.2,11.4-6.2,5.11,0,9.11,1.82,12.32,3.29.5.25,1.04.36,1.74.36,2.46,0,3.59-2.06,3.59-3.97,0-2.85-4.23-5.06-7.86-6.08-3.06-.86-6.84-1.39-9.86-1.39-12.65,0-20.2,5.32-20.2,14.22,0,8.07,4.72,12.18,18.03,15.71,8.52,2.27,12.57,4.12,12.57,8.52s-4,6.82-10.7,6.82-9.79-1.98-13.37-4.28c-.38-.24-.76-.49-1.15-.74-.74-.44-1.46-.65-2.25-.65-2.23,0-3.66,1.47-3.66,3.74,0,1.86,1.38,3.35,2.53,4.27Zm65.42.91V6.25c0-2.45-1.87-4.47-4.33-4.47s-4.47,2.02-4.47,4.47v44.06c0,2.45,2.02,4.47,4.47,4.47s4.33-2.02,4.33-4.47Zm140.56-21.87c0,15-11.21,26.31-26.08,26.31s-26.08-11.31-26.08-26.31,11.21-26.31,26.08-26.31,26.08,11.31,26.08,26.31Zm-8.85,0c0-10.7-7.25-18.47-17.23-18.47s-17.23,7.77-17.23,18.47,7.25,18.46,17.23,18.46,17.23-7.77,17.23-18.46Zm-214.08,0c0,15-11.21,26.31-26.08,26.31s-26.08-11.31-26.08-26.31,11.21-26.31,26.08-26.31,26.08,11.31,26.08,26.31Zm-8.85,0c0-10.7-7.25-18.47-17.23-18.47s-17.23,7.77-17.23,18.47,7.25,18.46,17.23,18.46,17.23-7.77,17.23-18.46Zm161.21,22.25V10.17c0-4.86-3.17-8.39-7.54-8.39-3.03,0-5.68,2-6.94,5.21l-9.53,22.39-9.67-22.5c-1.96-4.44-5.2-5.1-6.96-5.1-4.2,0-7.48,3.65-7.48,8.31v40.51c0,2.26,1.83,4.1,4.1,4.1s4.1-1.83,4.1-4.1V13.09l11.54,26.86c.75,1.82,2.46,3,4.39,3h0c1.93,0,3.64-1.18,4.39-3.01l11.42-26.82v37.56c0,2.26,1.83,4.1,4.1,4.1s4.1-1.83,4.1-4.1Zm-184.75,27.82c-10.6,0-17.47,8.13-17.47,18.1s6.87,18.1,17.47,18.1c6.24,0,10.6-2.88,13.43-6.61.21-.31.42-.63.42-1.05,0-.84-.63-1.42-1.47-1.42-.47,0-.79.16-1.1.58-2.62,3.31-5.77,5.61-11.28,5.61-9.07,0-14.32-7.24-14.32-15.21s5.25-15.21,14.32-15.21c5.51,0,8.66,2.31,11.28,5.61.31.42.63.58,1.1.58.84,0,1.47-.58,1.47-1.42,0-.42-.21-.73-.42-1.05-2.83-3.72-7.19-6.61-13.43-6.61Zm48.94,32.73v-30.95c0-.89-.68-1.57-1.57-1.57s-1.57.68-1.57,1.57v32.21c0,.89.68,1.57,1.57,1.57h20.35c.79,0,1.42-.63,1.42-1.42s-.63-1.42-1.42-1.42h-18.78Zm81.41-14.63c0-9.76-7.03-18.1-17.52-18.1s-17.63,8.34-17.63,18.1,7.13,18.1,17.63,18.1,17.52-8.34,17.52-18.1Zm-3.15,0c0,8.03-5.35,15.32-14.37,15.32s-14.48-7.29-14.48-15.32,5.46-15.32,14.48-15.32,14.37,7.29,14.37,15.32Zm49.87,18.1c9.13,0,14.74-5.61,14.74-14.37v-20.04c0-.89-.68-1.57-1.57-1.57s-1.57.68-1.57,1.57v20.25c0,6.82-3.51,11.38-11.59,11.38s-11.59-4.56-11.59-11.38v-20.25c0-.89-.68-1.57-1.57-1.57s-1.57.68-1.57,1.57v20.04c0,8.76,5.61,14.37,14.74,14.37Zm77.91-18.1c0-9.76-6.82-17.47-17.41-17.47h-9.97c-.89,0-1.57.68-1.57,1.57v31.79c0,.84.63,1.57,1.57,1.57h9.97c10.6,0,17.41-7.71,17.41-17.47Zm-3.15,0c0,8.24-5.35,14.63-14.48,14.63h-8.18v-29.27h8.18c9.13,0,14.48,6.4,14.48,14.63Z" fill="#fff"/>
    <path d="m7.32,86.16C2.66,77.81,0,68.2,0,57.98,0,26.01,26.01,0,57.98,0c2.94,0,5.32,2.38,5.32,5.32s-2.38,5.32-5.32,5.32c-26.1,0-47.34,21.24-47.34,47.34,0,7.83,1.92,15.21,5.3,21.73-3.57,1.1-6.6,3.41-8.62,6.45Zm103.32-33.5c-2.94,0-5.32,2.38-5.32,5.32,0,26.1-21.24,47.34-47.34,47.34-7.99,0-15.52-2-22.13-5.51-1.13,3.55-3.47,6.56-6.53,8.55,8.46,4.83,18.24,7.6,28.66,7.6,31.97,0,57.98-26.01,57.98-57.98,0-2.94-2.38-5.32-5.32-5.32Zm-74.79,47.15c.49-1.53.75-3.15.75-4.84,0-8.82-7.15-15.97-15.97-15.97-1.63,0-3.21.25-4.69.7,4.44,8.55,11.4,15.59,19.91,20.11Zm-28.53-13.66c-1.68,2.53-2.65,5.56-2.65,8.81,0,8.82,7.15,15.97,15.97,15.97,3.2,0,6.18-.95,8.68-2.57-9.2-5.25-16.83-12.96-21.99-22.21Zm84.11-41.52c-2.11,3.08-5.35,5.31-9.12,6.1.69,2.3,1.06,4.73,1.06,7.25,0,14-11.39,25.39-25.39,25.39-2.94,0-5.32,2.38-5.32,5.32s2.38,5.32,5.32,5.32c19.86,0,36.03-16.16,36.03-36.03,0-4.71-.92-9.22-2.57-13.35Zm-20.66-20.32c-3.98-1.52-8.29-2.36-12.8-2.36-19.86,0-36.03,16.16-36.03,36.03,0,2.94,2.38,5.32,5.32,5.32s5.32-2.38,5.32-5.32c0-14,11.39-25.39,25.39-25.39,2.37,0,4.66.33,6.84.94.73-3.8,2.91-7.07,5.95-9.23Zm20.66,20.32c1.62-2.36,2.57-5.22,2.57-8.31,0-8.13-6.59-14.72-14.72-14.72-3.17,0-6.1,1-8.5,2.71,9.4,3.58,16.92,11,20.66,20.32Zm-26.61-11.09c-.17.9-.27,1.83-.27,2.79,0,8.13,6.59,14.72,14.72,14.72,1.04,0,2.05-.11,3.03-.31-2.48-8.31-9.11-14.85-17.49-17.2Z" fill="#fff"/>
  </g>
</svg>