<?xml version="1.0" encoding="UTF-8"?>
<svg id="Layer_1" data-name="Layer 1" xmlns="http://www.w3.org/2000/svg" viewBox="0 0 300 300">
  <defs>
    <style>
      .cls-1 {
        opacity: .1;
      }

      .cls-2, .cls-3, .cls-4, .cls-5 {
        stroke-width: 0px;
      }

      .cls-3 {
        fill: #9680d3;
      }

      .cls-4 {
        fill: #36c5f3;
      }

      .cls-5 {
        fill: #1f0f58;
      }
    </style>
  </defs>
  <g>
    <g class="cls-1">
      <path class="cls-2" d="m143.21,220.33c-12.99-1.84-13.17-14.69-16.06-20.05-6.17-11.48-5.48-25.73-21.58-25.73-27.73,0-10.95,56.47-50.02,56.47v-18.38c25.99,0,25.46-104.76,50.02-104.76,19.49,0,24.41,81.86,37.64,112.45Z"/>
    </g>
    <g class="cls-1">
      <path class="cls-2" d="m274,193.98c-4.36,8.31-4.84,21.17-18.38,21.17-10.85,0-15.37-17.26-22.28-33.06,10.85-19.14,7.63-49.14,22.28-49.14s14.32,37.13,18.38,61.03Z"/>
    </g>
  </g>
  <path class="cls-3" d="m274,190.42v63.97H44.82v-20.03c39.07,0,22.29-56.47,50.02-56.47,16.1,0,18.89,13.69,25.06,25.17,2.89,5.36,6.51,10.25,12.58,13.02,3.3,1.51,7.33,2.41,12.37,2.41,34.04,0,18.5-58.65,50.02-58.65,14.42,0,21.92,12.26,27.74,25.58,6.91,15.8,11.43,33.06,22.28,33.06,13.54,0,14.02-12.86,18.38-21.17,2.08-3.97,5.04-6.9,10.73-6.9Z"/>
  <g class="cls-1">
    <path class="cls-2" d="m252.91,240.85c-14.95,6.33-208.09,4.2-208.09,4.2v9.33s229.18,0,229.18,0v-63.97c-5.69,0-8.65,2.93-10.73,6.9,0,0,4.59,37.21-10.36,43.54Z"/>
  </g>
  <path class="cls-4" d="m132.48,216.08c-6.07-2.78-9.69-7.66-12.58-13.02-6.17-11.48-8.96-25.17-25.06-25.17-27.73,0-10.95,56.47-50.02,56.47v-18.38c25.99,0,25.46-104.76,50.02-104.76,19.49,0,24.41,74.28,37.64,104.86Z"/>
  <path class="cls-4" d="m263.27,197.32c-4.36,8.31-4.84,21.17-18.38,21.17-10.85,0-15.37-17.26-22.28-33.06,10.85-19.14,7.63-49.14,22.28-49.14s14.32,37.13,18.38,61.03Z"/>
  <g class="cls-1">
    <path class="cls-2" d="m132.48,216.08c-6.07-2.78-9.69-7.66-12.58-13.02-6.17-11.48-8.96-25.17-25.06-25.17-27.73,0-10.95,56.47-50.02,56.47v-8.69c25.99,0,18.63-59.48,50.02-59.48s18.96,24.39,37.64,49.89Z"/>
  </g>
  <g class="cls-1">
    <path class="cls-2" d="m261.38,183.4c.56,4.87,1.15,9.61,1.89,13.91-4.36,8.31-4.84,21.17-18.38,21.17-10.85,0-15.37-17.26-22.28-33.06,1.6-2.82,3.98-9.03,3.98-9.03,9.8,0,12.27,30.81,18.97,30.72,8.83-.12,9-22.88,15.83-23.71Z"/>
  </g>
  <path class="cls-5" d="m44.82,219.98c-2.21,0-4-1.79-4-4V26.79c0-2.21,1.79-4,4-4s4,1.79,4,4v189.19c0,2.21-1.79,4-4,4Z"/>
  <path class="cls-5" d="m274,258.39H44.82c-2.21,0-4-1.79-4-4v-20.03c0-2.21,1.79-4,4-4,18.19,0,22.21-14.06,26.46-28.95,3.69-12.9,7.86-27.52,23.56-27.52s20.92,11.18,25.53,21.05c.97,2.08,1.97,4.23,3.05,6.23,3.19,5.93,6.4,9.3,10.72,11.28,3,1.38,6.5,2.04,10.71,2.04,13.39,0,17.38-10.31,22.37-27.3,4.31-14.69,9.2-31.35,27.65-31.35,16.9,0,25.36,14.15,31.41,27.98,1.29,2.95,2.49,5.93,3.66,8.82,4.52,11.23,8.8,21.84,14.96,21.84,7.17,0,9.12-4.36,11.94-12.08.85-2.33,1.73-4.74,2.9-6.95,3.19-6.08,7.85-9.04,14.27-9.04,2.21,0,4,1.79,4,4v63.97c0,2.21-1.79,4-4,4Zm-225.18-8h221.18v-55.02c-1.23.75-2.23,1.97-3.19,3.8-.91,1.74-1.67,3.81-2.47,5.99-2.68,7.31-6.34,17.33-19.46,17.33-11.56,0-16.82-13.04-22.38-26.85-1.14-2.83-2.32-5.77-3.57-8.61-5.26-12.04-11.82-23.19-24.08-23.19-11.62,0-15.3,9.67-19.98,25.6-4.55,15.49-9.7,33.04-30.04,33.04-5.38,0-9.97-.91-14.04-2.77-7.62-3.49-11.72-9.72-14.43-14.76-1.18-2.2-2.24-4.46-3.25-6.63-4.9-10.5-8.17-16.44-18.29-16.44-9.2,0-12.02,8.25-15.87,21.72-4.17,14.59-9.3,32.54-30.15,34.56v12.22Z"/>
  <path class="cls-5" d="m44.82,277.21c-2.21,0-4-1.79-4-4v-18.82c0-2.21,1.79-4,4-4s4,1.79,4,4v18.82c0,2.21-1.79,4-4,4Z"/>
  <path class="cls-5" d="m244.89,277.21c-2.21,0-4-1.79-4-4v-18.82c0-2.21,1.79-4,4-4s4,1.79,4,4v18.82c0,2.21-1.79,4-4,4Z"/>
  <path class="cls-5" d="m194.87,277.21c-2.21,0-4-1.79-4-4v-18.82c0-2.21,1.79-4,4-4s4,1.79,4,4v18.82c0,2.21-1.79,4-4,4Z"/>
  <path class="cls-5" d="m144.85,277.21c-2.21,0-4-1.79-4-4v-18.82c0-2.21,1.79-4,4-4s4,1.79,4,4v18.82c0,2.21-1.79,4-4,4Z"/>
  <path class="cls-5" d="m94.83,277.21c-2.21,0-4-1.79-4-4v-18.82c0-2.21,1.79-4,4-4s4,1.79,4,4v18.82c0,2.21-1.79,4-4,4Z"/>
  <path class="cls-5" d="m44.82,258.39h-18.82c-2.21,0-4-1.79-4-4s1.79-4,4-4h18.82c2.21,0,4,1.79,4,4s-1.79,4-4,4Z"/>
  <path class="cls-5" d="m44.82,58.31h-18.82c-2.21,0-4-1.79-4-4s1.79-4,4-4h18.82c2.21,0,4,1.79,4,4s-1.79,4-4,4Z"/>
  <path class="cls-5" d="m44.82,108.33h-18.82c-2.21,0-4-1.79-4-4s1.79-4,4-4h18.82c2.21,0,4,1.79,4,4s-1.79,4-4,4Z"/>
  <path class="cls-5" d="m44.82,158.35h-18.82c-2.21,0-4-1.79-4-4s1.79-4,4-4h18.82c2.21,0,4,1.79,4,4s-1.79,4-4,4Z"/>
  <path class="cls-5" d="m44.82,208.37h-18.82c-2.21,0-4-1.79-4-4s1.79-4,4-4h18.82c2.21,0,4,1.79,4,4s-1.79,4-4,4Z"/>
  <path class="cls-5" d="m44.82,238.36c-2.21,0-4-1.79-4-4v-18.38c0-2.21,1.79-4,4-4,10.01,0,16.61-27.95,21.92-50.41,6.89-29.16,12.83-54.35,28.1-54.35s21.88,28.97,29.21,62.51c3.6,16.49,7.32,33.53,11.96,44.42.32.57.5,1.23.5,1.93,0,2.21-1.79,4-3.99,4-.57,0-1.15-.11-1.69-.36-7.63-3.49-11.72-9.72-14.44-14.76-1.18-2.2-2.24-4.46-3.25-6.63-4.9-10.5-8.17-16.44-18.29-16.44-9.2,0-12.02,8.25-15.87,21.72-4.42,15.48-9.93,34.75-34.15,34.75Zm4-18.97v10.72c14.81-1.95,18.54-14.97,22.46-28.7,3.69-12.9,7.86-27.52,23.56-27.52s20.92,11.18,25.53,21.05c.86,1.85,1.75,3.75,2.7,5.56-2.46-9.01-4.67-19.13-6.84-29.06-3.16-14.45-6.42-29.39-10.31-40.29-4.94-13.86-9.07-15.93-11.09-15.93-8.94,0-15.25,26.72-20.32,48.19-6.28,26.6-12.24,51.84-25.7,55.98Z"/>
  <path class="cls-5" d="m244.89,222.49c-11.56,0-16.82-13.04-22.38-26.85-1.14-2.84-2.32-5.77-3.57-8.61-.5-1.15-.44-2.48.19-3.58,4.07-7.17,6.11-16.42,7.91-24.58,3.02-13.67,5.87-26.58,17.85-26.58,14.74,0,17.28,22.48,19.97,46.28.73,6.48,1.42,12.6,2.35,18.09.15.86,0,1.75-.4,2.53-.91,1.74-1.67,3.8-2.47,5.98-2.68,7.31-6.34,17.33-19.46,17.33Zm-17.84-36.87c1,2.36,1.96,4.73,2.88,7.03,4.52,11.23,8.8,21.84,14.96,21.84,7.17,0,9.12-4.36,11.94-12.08.7-1.9,1.41-3.86,2.28-5.71-.87-5.39-1.55-11.4-2.2-17.24-1.87-16.53-4.42-39.17-12.02-39.17-5.17,0-7.24,7.67-10.04,20.31-1.79,8.09-3.8,17.19-7.81,25.02Z"/>
</svg>