<?xml version="1.0" encoding="UTF-8"?>
<svg id="_Слой_2" data-name="Слой 2" xmlns="http://www.w3.org/2000/svg" viewBox="0 0 258.33 176.93">
  <g id="Layer_1" data-name="Layer 1">
    <g>
      <g opacity=".15">
        <path d="m258.33,158.15s-39.71-8.57-39.56-41.57c-12.07-10.5-32.03-6.11-46.32,4.39-14.29,10.5-28.25-17.15-28.25-17.15,18.18-21.91,46.57-53.77,62.75-60.06,9.75,10.58,38.75,83.75,51.38,114.38Z"/>
      </g>
      <path d="m247.14,160.55s-42.82-23.99-65.19-20.39c-22.36,3.6-41.67,22.93-49.14,9.76-4.9-8.67-10.79-18.79-16.84-28.5,2.92-3.74,7.96-10.08,14.21-17.6,0,0,13.96,27.65,28.25,17.15,14.3-10.5,34.25-14.9,46.32-4.39,12.08,10.5,28.96,10.5,28.96,10.5,7.82,18.93,13.42,33.47,13.42,33.47Z" fill="#36c5f3"/>
      <path d="m233.72,127.09s-16.89,0-28.96-10.5c-12.07-10.5-32.03-6.11-46.32,4.39-14.29,10.5-28.25-17.15-28.25-17.15,18.18-21.91,46.57-53.77,62.75-60.06,9.75,10.58,28.15,52.69,40.78,83.31Z" fill="#fff"/>
      <g opacity=".07">
        <path d="m181.95,50.32c4.03-3.02,7.75-5.29,10.98-6.55,9.75,10.58,28.15,52.69,40.78,83.31,0,0-16.89,0-28.96-10.5-12.07-10.5-32.03-6.11-46.32,4.39-14.29,10.5-28.25-17.15-28.25-17.15,2.8-3.37,5.84-6.98,9.04-10.69,0,0,2.56,14.82,10.64,15.06,8.09.24,38.48-12.73,46.81-10.04,8.33,2.69,17.89,12.49,17.89,12.49-8.94-27.82-18.89-51.59-32.62-60.32Z"/>
      </g>
      <path d="m145.47,176.93c-1.44,0-2.82-.78-3.54-2.13-.05-.1-5.25-9.93-12.59-22.89-5.92-10.47-11.55-20.01-16.75-28.35-.89-1.43-.79-3.26.25-4.58,2.51-3.21,7.7-9.77,14.28-17.69.86-1.04,2.19-1.57,3.53-1.42,1.34.15,2.51.97,3.12,2.17,2.12,4.19,9.2,15.45,16.28,17.13,2.12.51,4.04.06,6.03-1.4,14.66-10.77,36.97-16.68,51.32-4.19,10.82,9.41,26.18,9.52,26.34,9.52,1.62,0,3.08.98,3.7,2.47,7.74,18.75,13.4,33.41,13.46,33.56.79,2.06-.23,4.38-2.29,5.17-2.06.79-4.38-.23-5.17-2.29-.05-.14-5.21-13.52-12.42-31.04-5.61-.46-18.67-2.49-28.85-11.35-10.54-9.17-28.77-4.63-41.33,4.6-3.87,2.84-8.24,3.79-12.64,2.74-8.21-1.96-14.88-10.43-18.55-16.13-3.63,4.43-6.65,8.22-8.76,10.9,4.84,7.86,10.03,16.67,15.44,26.26,7.41,13.07,12.65,23,12.71,23.1,1.03,1.95.28,4.37-1.67,5.4-.6.31-1.23.46-1.86.46Z" fill="#1f0f58"/>
      <path d="m233.74,131.09h-.02c-.75,0-18.53-.13-31.59-11.49-3.84-3.34-8.8-5.03-14.76-5.03-8.43,0-18.36,3.6-26.57,9.63-2.85,2.09-5.92,3.16-9.13,3.16-13.69,0-23.94-19.5-25.06-21.73-.72-1.42-.52-3.13.49-4.36,20.23-24.38,47.83-54.8,64.38-61.23,1.54-.6,3.27-.19,4.39,1.02,9.96,10.81,27.98,51.64,41.39,84.14.3.56.47,1.2.47,1.88,0,2.21-1.79,4-4,4Zm-46.37-24.52c7.83,0,14.75,2.42,20.01,7,6.44,5.6,14.56,7.91,20.07,8.86-15.95-38.25-28.43-64.03-35.66-73.74-11.86,6.18-31.79,25.68-56.79,55.6,3.26,5.51,10.23,15.07,16.67,15.07,1.49,0,2.92-.52,4.39-1.6,9.68-7.11,21.09-11.19,31.31-11.19Z" fill="#1f0f58"/>
      <g opacity=".15">
        <path d="m147.8,153.65s-34.2,6.97-37.61-18.27c-3.41-25.23-43.14,29.96-49.7,16.96-6.55-13-16.67-16.96-16.67-16.96,18.7-22.79,42.48-48.9,55.45-51.82,6.9,3.65,18.45,20.06,29.5,37.86,6.05,9.71,14.13,23.55,19.03,32.22Z"/>
      </g>
      <path d="m145.47,172.93s-24.99-6.41-41.78-11.23c-16.8-4.83-56.94,18.04-68,5.69-11.06-12.35-31.68,2.84-31.68,2.84,0,0,11.84-16.33,27.03-34.83,0,0,10.12,3.96,16.67,16.96,6.55,13,40.96-9.82,49.7-16.96,8.74-7.14,35.42,14.54,35.42,14.54,7.46,13.17,12.65,23,12.65,23Z" fill="#36c5f3"/>
      <path d="m132.82,149.93s-26.68-21.68-35.42-14.54c-8.73,7.14-43.14,29.96-49.7,16.96-6.55-13-16.67-16.96-16.67-16.96,18.7-22.79,42.48-48.9,55.45-51.82,6.9,3.65,18.45,20.06,29.5,37.86,6.05,9.71,11.94,19.83,16.84,28.5Z" fill="#fff"/>
      <g opacity=".07">
        <path d="m78.87,87.03c2.81-1.75,5.37-2.95,7.61-3.46,6.9,3.65,18.45,20.06,29.5,37.86,6.05,9.71,11.94,19.83,16.84,28.5,0,0-26.68-21.68-35.42-14.54-8.73,7.14-43.14,29.96-49.7,16.96-6.55-13-16.67-16.96-16.67-16.96,2.34-2.85,4.76-5.76,7.23-8.66,0,0,14.06,5.96,17,15.26,2.94,9.31,38.48-20.57,47.3-18.61,8.82,1.96-23.7-36.35-23.7-36.35Z"/>
      </g>
      <path d="m145.47,176.93c-1.44,0-2.82-.78-3.54-2.13-.05-.1-5.07-9.6-12.22-22.23-11.36-9.08-26.19-17.01-29.78-14.08-5.66,4.63-29.98,21.77-44.84,21.77-1.14,0-2.23-.1-3.24-.32-3.51-.75-6.18-2.75-7.72-5.79-3.88-7.7-9.05-11.81-12.07-13.7-13.95,17.16-24.71,31.97-24.82,32.12-1.3,1.79-3.8,2.19-5.59.89-1.79-1.3-2.19-3.8-.89-5.59.12-.16,12.08-16.64,27.17-35.02,1.1-1.34,2.94-1.82,4.55-1.19.47.18,11.62,4.69,18.79,18.88.31.61.81,1.27,2.23,1.57,8.92,1.9,31.67-11.9,41.36-19.83,5.12-4.19,13.48-2.8,25.53,4.23,7.94,4.63,14.66,10.07,14.94,10.3.39.31.71.7.96,1.13,7.41,13.07,12.66,23,12.71,23.1,1.03,1.95.28,4.37-1.67,5.4-.6.31-1.23.46-1.86.46Z" fill="#1f0f58"/>
      <path d="m55.24,160.28c-6.63,0-9.7-3.33-11.11-6.13-5.8-11.5-14.47-15-14.56-15.04-1.19-.47-2.09-1.48-2.41-2.71-.32-1.24-.03-2.56.78-3.55,26.85-32.72,46.25-50.61,57.66-53.18.93-.21,1.91-.08,2.75.37,2.44,1.29,9.88,5.22,31.03,39.29,5.2,8.35,10.83,17.88,16.74,28.32.45.65.72,1.44.72,2.29,0,2.25-1.87,4.06-4.11,4-.86-.02-1.72-.32-2.43-.89-7.19-5.83-21.21-15.09-28.24-15.09-.97,0-1.69.18-2.13.54-5.29,4.32-29.87,21.79-44.69,21.79Zm-18.08-26.03c4,2.69,9.79,7.72,14.11,16.3.26.52.87,1.73,3.96,1.73,10.81,0,32.44-14.1,39.63-19.99,1.91-1.56,4.32-2.35,7.19-2.35,5.47,0,12.33,3.07,18.41,6.6-2.72-4.59-5.35-8.94-7.88-13-15.35-24.71-23.06-32.95-26.71-35.63-6.13,2.23-19.83,11.61-48.71,46.33Z" fill="#1f0f58"/>
      <path d="m7.55,131.09c-1,0-2.01-.37-2.78-1.13-1.59-1.54-1.63-4.07-.09-5.66L79.05,47.52c.75-.77,1.78-1.21,2.86-1.22h.01c1.07,0,2.1.43,2.85,1.2l32.34,32.94L179.61,13.21l-8,2.83c-2.08.74-4.37-.35-5.11-2.44-.74-2.08.35-4.37,2.44-5.11L192.29.23c1.74-.62,3.67.04,4.68,1.57,1.01,1.54.84,3.57-.41,4.92l-76.43,82.23c-.74.8-1.78,1.26-2.88,1.28-1.1.04-2.14-.42-2.91-1.2l-32.4-33L10.43,129.87c-.78.81-1.83,1.22-2.87,1.22Z" fill="#1f0f58"/>
      <path d="m188.07,30.06c-.32,0-.65-.04-.98-.12-2.14-.54-3.44-2.71-2.9-4.86l5.56-22.05c.54-2.14,2.71-3.44,4.86-2.9,2.14.54,3.44,2.71,2.9,4.86l-5.56,22.05c-.46,1.81-2.09,3.02-3.88,3.02Z" fill="#1f0f58"/>
    </g>
  </g>
</svg>