<?xml version="1.0" encoding="UTF-8"?>
<svg id="Layer_1" data-name="Layer 1" xmlns="http://www.w3.org/2000/svg" viewBox="0 0 300 300">
  <defs>
    <style>
      .cls-1 {
        opacity: .1;
      }

      .cls-2, .cls-3, .cls-4, .cls-5 {
        stroke-width: 0px;
      }

      .cls-3 {
        fill: #9680d3;
      }

      .cls-4 {
        fill: #3bc9f5;
      }

      .cls-5 {
        fill: #1f0f58;
      }
    </style>
  </defs>
  <g class="cls-1">
    <path class="cls-2" d="m288.42,125.73l-70.81,72.15c-7.42,7.56-16.44,12.49-25.95,14.78-15.98,3.87-33.33.3-46.76-10.69h0c-13.15-13.46,5.47-36.81,19.4-27.69.82.8,1.69,1.52,2.6,2.16,8.31,5.86,19.79,5.02,27.19-2.52l59.5-60.63c1.86-28.99-24.24-36.77-37.4-23.36l-27.48,28c-3.67-2.15-7.53-3.82-11.51-5.03-9.19-2.78-18.95-3.05-28.24-.8-.71.17-1.42.36-2.12.56l45.83-46.7c33.69-34.32,100.45-14.39,95.74,59.76,0,0,0,0,0,0Z"/>
  </g>
  <g class="cls-1">
    <path class="cls-2" d="m120.92,139.09c7.42-7.56,16.44-12.49,25.95-14.78,15.98-3.87,33.33-.3,46.76,10.69h0c13.15,13.46-5.47,36.81-19.4,27.69-.82-.8-1.69-1.52-2.6-2.16-8.31-5.86-19.79-5.02-27.19,2.52l-59.5,60.63c-1.86,28.99,24.24,36.77,37.4,23.36l27.48-28c3.67,2.15,7.53,3.82,11.51,5.03,9.19,2.78,18.95,3.05,28.24.8.71-.17,1.42-.36,2.12-.56l-45.83,46.7c-33.69,34.32-100.45,14.39-95.74-59.76l70.81-72.15Z"/>
  </g>
  <path class="cls-4" d="m269.61,111.72l-70.81,72.15c-7.42,7.56-16.44,12.49-25.95,14.78-15.98,3.87-33.33.3-46.76-10.69h0c-13.15-13.46,5.47-36.81,19.4-27.69.82.8,1.69,1.52,2.6,2.16,8.31,5.86,19.79,5.02,27.19-2.52l59.5-60.63c1.86-28.98-24.24-36.77-37.4-23.36l-27.48,28c-3.67-2.15-7.53-3.82-11.51-5.03-9.19-2.78-18.95-3.05-28.24-.8-.71.17-1.42.36-2.12.56l45.83-46.7c33.69-34.32,100.45-14.39,95.74,59.76,0,0,0,0,0,0Z"/>
  <path class="cls-3" d="m31.3,197.23l70.81-72.15c7.42-7.56,16.44-12.49,25.95-14.78,15.98-3.87,33.33-.3,46.76,10.69h0c13.15,13.46-5.47,36.81-19.4,27.69-.82-.8-1.69-1.52-2.6-2.16-8.31-5.86-19.79-5.02-27.19,2.52l-59.5,60.63c-1.86,28.98,24.24,36.77,37.4,23.36l27.48-28c3.67,2.15,7.53,3.82,11.51,5.03,9.19,2.78,18.95,3.05,28.24.8.71-.17,1.42-.36,2.12-.56l-45.83,46.7c-33.69,34.32-100.45,14.39-95.74-59.76,0,0,0,0,0,0Z"/>
  <g>
    <path class="cls-5" d="m160.19,204.16c-13.37,0-26.45-4.7-36.8-13.24-5.91-5.94-7.39-14.31-3.99-22.38,3.55-8.43,11.51-14.32,19.35-14.32,3.31,0,6.44.99,9.28,2.95.74.75,1.54,1.42,2.37,2,2.89,2.04,6.29,3.12,9.82,3.12,4.61,0,8.95-1.83,12.22-5.17l52.26-53.25c6.8-6.93,6.8-18.2,0-25.13-3.27-3.33-7.61-5.17-12.22-5.17s-8.95,1.83-12.22,5.17l-27.48,28c-1.28,1.31-3.29,1.58-4.88.65-3.35-1.96-6.93-3.52-10.65-4.65-8.45-2.56-17.56-2.81-26.14-.74-1.11.26-2.16.56-3.23.89-4.08-.9-4.78-4.9-2.69-7.03l45.83-46.7c11.07-11.28,25.78-17.49,41.45-17.49s30.38,6.21,41.45,17.49c22.8,23.23,22.8,61.03,0,84.26l-52.26,53.25c-7.69,7.84-17.33,13.33-27.86,15.87-4.44,1.08-9.02,1.62-13.6,1.62Zm-31.39-19.15c8.87,7.19,20.01,11.15,31.39,11.15,3.94,0,7.89-.47,11.72-1.4,9.08-2.19,17.39-6.93,24.03-13.7l52.26-53.25c19.76-20.14,19.76-52.91,0-73.05-9.55-9.73-22.25-15.09-35.74-15.09s-26.19,5.36-35.74,15.09l-37.22,37.93c6.76-.39,13.56.42,20.05,2.38,3.32,1.01,6.54,2.31,9.62,3.89l25.36-25.84c4.79-4.88,11.15-7.56,17.93-7.56,15.35,0,28.6,13.77,26.12,35.56l-60.44,61.59c-4.79,4.88-11.15,7.56-17.93,7.56-5.19,0-10.18-1.58-14.42-4.58-.96-.67-1.89-1.43-2.77-2.26-1.34-.82-2.78-1.23-4.27-1.23-4.64,0-9.67,3.97-11.97,9.43-1.23,2.92-2.58,8.51,2.03,13.37Z"/>
    <path class="cls-5" d="m88.45,277.28c-35.17,0-65.6-31.32-60.57-81.01.09-.91.5-1.76,1.14-2.42l70.24-71.57c7.69-7.84,17.33-13.32,27.86-15.87,4.44-1.08,9.02-1.62,13.6-1.62,13.37,0,26.45,4.7,36.8,13.24,5.91,5.94,7.39,14.31,3.99,22.38-3.55,8.43-11.51,14.32-19.35,14.32-3.31,0-6.44-.99-9.28-2.95-.74-.74-1.54-1.42-2.37-2-2.89-2.04-6.29-3.12-9.82-3.12-4.61,0-8.95,1.83-12.22,5.17l-52.26,53.25c-6.8,6.93-6.8,18.2,0,25.13,3.27,3.33,7.61,5.17,12.22,5.17s8.96-1.83,12.22-5.17l29.74-30.3c4.07,2.74,8.56,4.87,13.27,6.3,8.45,2.56,17.56,2.81,26.14.74,1.11-.26,2.16-.56,3.22-.89,4.08.89,4.78,4.9,2.69,7.02l-45.83,46.7c-11.07,11.28-25.78,17.49-41.45,17.49Zm52.26-164.49c-3.94,0-7.89.47-11.72,1.4-9.08,2.19-17.39,6.93-24.03,13.7l-52.26,53.25c-19.76,20.14-19.76,52.91,0,73.05,9.55,9.73,22.25,15.09,35.74,15.09s26.19-5.36,35.74-15.09l37.22-37.92c-6.77.39-13.56-.42-20.05-2.38-3.32-1.01-6.54-2.31-9.62-3.89l-25.36,25.84c-4.79,4.88-11.15,7.56-17.93,7.56s-13.15-2.69-17.93-7.56c-9.83-10.02-9.83-26.32,0-36.34l52.26-53.25c4.79-4.88,11.15-7.56,17.93-7.56,5.19,0,10.18,1.58,14.42,4.58.96.67,1.89,1.43,2.77,2.26,1.34.82,2.78,1.23,4.27,1.23,4.64,0,9.68-3.97,11.97-9.43,1.23-2.92,2.58-8.51-2.03-13.37-8.87-7.19-20.01-11.15-31.39-11.15Z"/>
  </g>
</svg>