<?xml version="1.0" encoding="UTF-8"?>
<svg id="_Слой_2" data-name="Слой 2" xmlns="http://www.w3.org/2000/svg" viewBox="0 0 256 156.96">
  <g id="Layer_1" data-name="Layer 1">
    <g>
      <path d="m24.49,75.09c0,5.64-4.59,10.2-10.25,10.2s-10.25-4.57-10.25-10.2,4.59-10.2,10.25-10.2c4.73,0,8.72,3.2,9.89,7.54.24.85.36,1.74.36,2.66Z" fill="#3bc9f5"/>
      <path d="m100.32,31.93c0,1.54-.34,3-.96,4.32-1.63,3.47-5.17,5.88-9.28,5.88-4.73,0-8.71-3.2-9.89-7.54-.23-.85-.35-1.74-.35-2.66,0-5.64,4.59-10.2,10.24-10.2s10.25,4.57,10.25,10.2Z" fill="#3bc9f5"/>
      <path d="m176.16,60.7c0,5.64-4.59,10.2-10.25,10.2s-10.25-4.57-10.25-10.2c0-1.54.35-3,.96-4.32,1.63-3.48,5.17-5.88,9.28-5.88,3.47,0,6.53,1.72,8.38,4.34,1.17,1.66,1.86,3.68,1.86,5.86Z" fill="#3bc9f5"/>
      <path d="m252,14.19c0,5.64-4.59,10.2-10.25,10.2-3.47,0-6.53-1.72-8.38-4.34-1.17-1.66-1.86-3.68-1.86-5.86,0-5.63,4.59-10.19,10.25-10.19s10.25,4.57,10.25,10.19Z" fill="#3bc9f5"/>
      <path d="m156.63,60.38c-.44,0-.89-.07-1.33-.23l-57.27-20.13c-2.08-.73-3.18-3.02-2.45-5.1.73-2.08,3.02-3.18,5.1-2.45l57.27,20.13c2.08.73,3.18,3.02,2.45,5.1-.58,1.65-2.12,2.67-3.77,2.67Z" fill="#1f0f58"/>
      <path d="m174.3,58.83c-1.37,0-2.71-.7-3.45-1.97-1.12-1.9-.49-4.36,1.42-5.48l59.07-34.78c1.9-1.12,4.35-.49,5.48,1.42,1.12,1.9.49,4.36-1.42,5.48l-59.07,34.78c-.64.38-1.34.55-2.03.55Z" fill="#1f0f58"/>
      <path d="m24.14,76.43c-1.28,0-2.55-.62-3.32-1.76-1.24-1.83-.75-4.32,1.08-5.55l56.05-37.85c1.83-1.24,4.32-.75,5.55,1.08,1.24,1.83.75,4.32-1.08,5.55l-56.05,37.85c-.69.46-1.46.69-2.23.69Z" fill="#1f0f58"/>
      <g>
        <path d="m241.75,156.96c-2.21,0-4-1.79-4-4v-8c0-2.21,1.79-4,4-4s4,1.79,4,4v8c0,2.21-1.79,4-4,4Z" fill="#1f0f58"/>
        <path d="m241.75,133.13c-2.21,0-4-1.79-4-4v-15.83c0-2.21,1.79-4,4-4s4,1.79,4,4v15.83c0,2.21-1.79,4-4,4Zm0-31.66c-2.21,0-4-1.79-4-4v-15.83c0-2.21,1.79-4,4-4s4,1.79,4,4v15.83c0,2.21-1.79,4-4,4Zm0-31.66c-2.21,0-4-1.79-4-4v-15.83c0-2.21,1.79-4,4-4s4,1.79,4,4v15.83c0,2.21-1.79,4-4,4Z" fill="#1f0f58"/>
        <path d="m241.75,38.15c-2.21,0-4-1.79-4-4v-8c0-2.21,1.79-4,4-4s4,1.79,4,4v8c0,2.21-1.79,4-4,4Z" fill="#1f0f58"/>
      </g>
      <g>
        <path d="m14.24,102.01c-2.21,0-4-1.79-4-4v-8c0-2.21,1.79-4,4-4s4,1.79,4,4v8c0,2.21-1.79,4-4,4Z" fill="#1f0f58"/>
        <path d="m14.24,133.31c-2.21,0-4-1.79-4-4v-15.65c0-2.21,1.79-4,4-4s4,1.79,4,4v15.65c0,2.21-1.79,4-4,4Z" fill="#1f0f58"/>
        <path d="m14.24,156.96c-2.21,0-4-1.79-4-4v-8c0-2.21,1.79-4,4-4s4,1.79,4,4v8c0,2.21-1.79,4-4,4Z" fill="#1f0f58"/>
      </g>
      <g>
        <path d="m90.08,58.24c-2.21,0-4-1.79-4-4v-8c0-2.21,1.79-4,4-4s4,1.79,4,4v8c0,2.21-1.79,4-4,4Z" fill="#1f0f58"/>
        <path d="m90.08,130.81c-2.21,0-4-1.79-4-4v-18.14c0-2.21,1.79-4,4-4s4,1.79,4,4v18.14c0,2.21-1.79,4-4,4Zm0-36.29c-2.21,0-4-1.79-4-4v-18.14c0-2.21,1.79-4,4-4s4,1.79,4,4v18.14c0,2.21-1.79,4-4,4Z" fill="#1f0f58"/>
        <path d="m90.08,156.96c-2.21,0-4-1.79-4-4v-8c0-2.21,1.79-4,4-4s4,1.79,4,4v8c0,2.21-1.79,4-4,4Z" fill="#1f0f58"/>
      </g>
      <g>
        <path d="m165.92,84.27c-2.21,0-4-1.79-4-4v-8c0-2.21,1.79-4,4-4s4,1.79,4,4v8c0,2.21-1.79,4-4,4Z" fill="#1f0f58"/>
        <path d="m165.92,136.02c-2.21,0-4-1.79-4-4v-12.94c0-2.21,1.79-4,4-4s4,1.79,4,4v12.94c0,2.21-1.79,4-4,4Zm0-25.87c-2.21,0-4-1.79-4-4v-12.94c0-2.21,1.79-4,4-4s4,1.79,4,4v12.94c0,2.21-1.79,4-4,4Z" fill="#1f0f58"/>
        <path d="m165.92,156.96c-2.21,0-4-1.79-4-4v-8c0-2.21,1.79-4,4-4s4,1.79,4,4v8c0,2.21-1.79,4-4,4Z" fill="#1f0f58"/>
      </g>
      <path d="m241.75,156.96H14.24c-2.21,0-4-1.79-4-4s1.79-4,4-4h227.51c2.21,0,4,1.79,4,4s-1.79,4-4,4Z" fill="#1f0f58"/>
      <path d="m14.25,89.29c-7.86,0-14.25-6.37-14.25-14.2s6.39-14.2,14.25-14.2c6.44,0,12.09,4.32,13.75,10.51.32,1.15.49,2.41.49,3.69,0,7.83-6.39,14.2-14.25,14.2Zm0-20.4c-3.44,0-6.25,2.78-6.25,6.2s2.8,6.2,6.25,6.2,6.25-2.78,6.25-6.2c0-.56-.07-1.08-.21-1.58-.73-2.74-3.21-4.62-6.04-4.62Z" fill="#1f0f58"/>
      <path d="m90.08,46.13c-6.43,0-12.08-4.32-13.75-10.5-.32-1.2-.49-2.44-.49-3.7,0-7.83,6.39-14.2,14.24-14.2s14.25,6.37,14.25,14.2c0,2.12-.45,4.15-1.35,6.03-2.33,4.96-7.4,8.17-12.9,8.17Zm0-20.4c-3.44,0-6.24,2.78-6.24,6.2,0,.56.07,1.1.21,1.61.73,2.7,3.21,4.59,6.03,4.59,2.42,0,4.64-1.41,5.66-3.58.39-.82.58-1.7.58-2.62,0-3.42-2.8-6.2-6.25-6.2Z" fill="#1f0f58"/>
      <path d="m165.91,74.9c-7.86,0-14.25-6.37-14.25-14.2,0-2.09.45-4.11,1.34-6.01,2.33-4.98,7.4-8.19,12.91-8.19,4.63,0,8.98,2.25,11.65,6.03,1.7,2.4,2.6,5.23,2.6,8.17,0,7.83-6.39,14.2-14.25,14.2Zm0-20.4c-2.42,0-4.64,1.41-5.66,3.58-.39.83-.58,1.71-.58,2.62,0,3.42,2.8,6.2,6.25,6.2s6.25-2.78,6.25-6.2c0-1.28-.39-2.51-1.13-3.56-1.17-1.66-3.08-2.65-5.12-2.65Z" fill="#1f0f58"/>
      <path d="m241.75,28.39c-4.63,0-8.98-2.25-11.65-6.03-1.7-2.41-2.6-5.23-2.6-8.17,0-7.83,6.39-14.19,14.25-14.19s14.25,6.37,14.25,14.19-6.39,14.2-14.25,14.2Zm0-20.39c-3.44,0-6.25,2.78-6.25,6.19,0,1.28.39,2.51,1.13,3.56,1.17,1.66,3.08,2.65,5.12,2.65,3.44,0,6.25-2.78,6.25-6.2s-2.8-6.19-6.25-6.19Z" fill="#1f0f58"/>
    </g>
  </g>
</svg>