<?xml version="1.0" encoding="UTF-8"?>
<svg id="Layer_1" data-name="Layer 1" xmlns="http://www.w3.org/2000/svg" viewBox="0 0 300 300">
  <defs>
    <style>
      .cls-1 {
        opacity: .07;
      }

      .cls-2, .cls-3, .cls-4 {
        stroke-width: 0px;
      }

      .cls-3 {
        fill: #1f0f58;
      }

      .cls-4 {
        fill: #fff;
      }
    </style>
  </defs>
  <g class="cls-1">
    <path class="cls-2" d="m232.77,42.99v54.99s-.53.18-1.49.45c-.14.04-.29.09-.44.13-.22.06-.46.13-.72.2-.65.18-1.41.37-2.26.57-.33.08-.67.16-1.03.24-.13.03-.26.06-.39.09-.25.06-.51.11-.78.17-.98.21-2.07.43-3.22.62-.43.08-.88.15-1.34.23-.34.05-.67.11-1.02.15-.33.05-.66.1-1,.14-.09.02-.18.03-.27.04-10.73,1.43-25.44,1.29-35.99-6.97-18.55-14.53-49.97-12.37-49.97-12.37v-12.61s26.51-5.06,49.97,12.37c12.71,9.44,33.49,10.64,37.01,6.87,3.52-3.77-.43-41.18-.43-41.18,8.04-1.42,13.39-4.15,13.39-4.15Z"/>
  </g>
  <path class="cls-4" d="m229.93,231.91c-1.43-.42-47.33-14.25-52.48-16.29-5.24-2.07-32.5,32.52-39.66,33.29-7.16.78-14.94-20.15-24.36-23.46-9.42-3.31-27.45,20.41-27.45,20.41l-19.91-29.65c23.1-33.28,51.34-71.36,66.76-82.35,31.91,5.13,71.84,58.84,97.1,98.06Z"/>
  <g class="cls-1">
    <path class="cls-2" d="m229.93,231.91c-.17-.05-1.05-.32-2.45-.74-.35-.1-.73-.22-1.14-.34-.97-.29-2.09-.62-3.34-1.01-1.45-.44-3.08-.93-4.84-1.47-1.3-.39-2.68-.81-4.1-1.25-.67-.2-1.35-.4-2.04-.62-3.72-1.11-7.68-2.33-11.55-3.53-10.72-3.29-20.78-6.46-23.03-7.34-5.24-2.07-32.5,32.52-39.66,33.29-7.16.78-14.94-20.15-24.36-23.46-9.42-3.31-27.45,20.41-27.45,20.41l-19.91-29.65c3.23-4.65,6.55-9.39,9.94-14.15,0,0,5.79,12.95,11.55,14.64,5.77,1.69,12.97-13.49,25.36-11.25,12.39,2.26,19.02,15.75,26.22,16.6,7.19.84,23.34-25.58,31.69-26.14,3.61-.25,8.61,1.82,13.48,4.12-13.89-24.67-34.12-43.94-61.66-57.06,3.79-3.88,7.23-7,10.18-9.11,21.57,3.47,46.81,29.14,68.71,57.54,1.31,1.7,2.61,3.41,3.89,5.13,1.07,1.42,2.13,2.83,3.15,4.25.67.91,1.35,1.84,2.01,2.75.81,1.11,1.61,2.21,2.39,3.32,1.02,1.42,2.02,2.83,3.01,4.25,3.8,5.43,7.42,10.81,10.8,15.99.54.81,1.07,1.62,1.59,2.43.52.81,1.04,1.6,1.56,2.39Z"/>
  </g>
  <path class="cls-3" d="m137.4,252.93c-5.59,0-9.7-5.68-14.46-12.27-3.47-4.8-7.41-10.24-10.83-11.44-.17-.06-.38-.09-.62-.09-5.3,0-16.45,11.42-22.32,19.14-.78,1.03-2.03,1.62-3.3,1.58-1.29-.04-2.48-.7-3.2-1.77l-19.91-29.65c-.92-1.37-.9-3.16.03-4.51,31.95-46.03,54.73-74.06,67.73-83.33.86-.61,1.92-.86,2.96-.69,32.67,5.25,72.18,56.95,99.63,99.54.53.68.85,1.54.85,2.47,0,2.2-1.77,3.98-3.97,4-.4,0-.79-.05-1.18-.16-.42-.12-43.5-13.08-51.93-16.08-3.01,1.48-11.07,9.66-16.49,15.16-12.01,12.19-17.73,17.58-22.15,18.06-.27.03-.55.04-.82.04h0Zm-25.91-31.8c1.14,0,2.24.18,3.27.54,5.78,2.03,10.3,8.27,14.66,14.3,2.33,3.22,6.2,8.57,7.92,8.94,2.81-.97,11.53-9.82,17.33-15.7,12.38-12.57,17.86-17.69,22.26-17.69.7,0,1.36.12,1.99.37,3.47,1.38,27.41,8.69,41.64,13.01-34.28-51.47-64.82-82.05-86.74-86.79-12.15,9.47-33.82,36.38-62.9,78.14l15.36,22.87c5.71-6.75,16.53-17.98,25.21-17.98Z"/>
  <path class="cls-3" d="m254.7,277.22c-1.42,0-2.8-.76-3.52-2.1-.1-.18-9.56-17.61-23.79-39.79-7.53-2.27-42.97-12.97-50.52-15.66-3.02,1.48-11.07,9.66-16.5,15.16-12.01,12.19-17.73,17.58-22.15,18.05-5.96.65-10.49-5.6-15.28-12.22-3.47-4.8-7.41-10.24-10.83-11.44-3.92-1.38-15.24,8.94-22.94,19.05-.78,1.03-2.01,1.62-3.3,1.58-1.29-.04-2.48-.7-3.2-1.77l-16.64-24.78c-18.54,26.91-33.14,49.76-33.3,50-1.19,1.86-3.66,2.41-5.52,1.22-1.86-1.19-2.41-3.66-1.22-5.52.16-.26,16.63-26,36.8-55.07.75-1.09,2-1.74,3.32-1.72,1.32.01,2.55.67,3.29,1.77l16.88,25.13c6.73-8.01,19.21-20.69,28.49-17.43,5.78,2.03,10.3,8.27,14.66,14.3,2.33,3.22,6.2,8.57,7.92,8.94,2.81-.97,11.53-9.82,17.33-15.7,14.14-14.35,19.5-19.2,24.25-17.32,4.88,1.93,50.18,15.6,52.14,16.17.21.06.42.14.62.24.66.31,1.24.81,1.65,1.45,14.85,23.04,24.79,41.37,24.89,41.55,1.05,1.94.33,4.37-1.61,5.42-.6.33-1.26.48-1.9.48Z"/>
  <path class="cls-3" d="m208.84,105.71c-11.7,0-21.29-2.86-28.5-8.51-13.4-10.5-34.59-11.63-43.08-11.63-2.57,0-4.13.1-4.15.1-1.11.08-2.19-.31-3-1.07-.81-.76-1.27-1.81-1.27-2.92V26.68c0-1.92,1.36-3.57,3.25-3.93.16-.03,4.02-.75,10.02-.75,11.16,0,27.69,2.4,43.08,13.84,7.26,5.39,15.62,8.13,24.86,8.13h0c11.84,0,20.82-4.5,20.91-4.54,1.24-.63,2.72-.57,3.91.15,1.19.73,1.91,2.02,1.91,3.41v54.99c0,1.72-1.1,3.24-2.72,3.79-.48.16-11.84,3.94-25.21,3.94Zm-71.59-28.14c9.32,0,32.65,1.3,48.02,13.33,5.77,4.52,13.7,6.81,23.57,6.81,8.37,0,16.02-1.69,19.93-2.73v-46.1c-4.42,1.47-11.05,3.09-18.72,3.09h0c-10.99,0-20.96-3.27-29.63-9.71-13.64-10.13-28.36-12.26-38.31-12.26-2.09,0-3.88.1-5.27.22v47.36c.14,0,.28,0,.42,0Z"/>
  <path class="cls-3" d="m132.83,137.86c-2.21,0-4-1.79-4-4v-52.17c0-2.21,1.79-4,4-4s4,1.79,4,4v52.17c0,2.21-1.79,4-4,4Z"/>
</svg>