<?xml version="1.0" encoding="UTF-8"?>
<svg id="Layer_1" data-name="Layer 1" xmlns="http://www.w3.org/2000/svg" viewBox="0 0 300 300">
  <defs>
    <style>
      .cls-1 {
        opacity: .1;
      }

      .cls-2 {
        fill: none;
        stroke: #434a54;
        stroke-linecap: round;
        stroke-linejoin: round;
        stroke-width: 8px;
      }

      .cls-3, .cls-4, .cls-5 {
        stroke-width: 0px;
      }

      .cls-4 {
        fill: #36c5f3;
      }

      .cls-5 {
        fill: #1f0f58;
      }
    </style>
  </defs>
  <path class="cls-4" d="m108.23,174.64c-6.63,2.42-11.06,8.33-13.99,14.41,0,3.5-26.99,3.5-26.99,0,0,0,2.63-21.49,15.79-26.32,13.16-4.83,27.21-3.07,26.34-12.93-.22-2.48-.94-4.85-1.91-7.25-2.84-7.08-7.75-12.39-7.75-23.87,0-15.35,6.34-23.62,17.53-23.62,5.61,0,10.49,2.33,13.98,5.58-3.21,3.97-5.08,9.73-5.08,17.76s2.07,14.75,4.49,20.44c1.69,3.98,3.55,7.6,4.98,11.15,1.17,2.92,2.05,5.81,2.32,8.85.01.1.01.21.02.31.78,11.71-13.82,9.63-29.74,15.48Z"/>
  <path class="cls-4" d="m211.05,206.77c0,8.75-122.09,8.75-122.09,0,0,0,1.1-9.06,5.29-17.73,2.93-6.08,7.36-11.99,13.99-14.41,15.93-5.85,30.52-3.77,29.74-15.48-.01-.1-.01-.21-.02-.31-.27-3.04-1.15-5.93-2.32-8.85-1.43-3.55-3.29-7.16-4.98-11.15-2.42-5.7-4.49-12.19-4.49-20.44s1.86-13.79,5.08-17.76c4.28-5.31,10.96-7.41,18.77-7.41s14.49,2.11,18.76,7.42c3.2,3.97,5.06,9.73,5.06,17.75s-2.07,14.72-4.48,20.42c-1.69,4-3.55,7.61-4.98,11.17-1.15,2.92-2.04,5.81-2.31,8.85-.01.11-.01.22-.02.32-.79,11.69,13.83,9.62,29.74,15.47,6.63,2.42,11.06,8.33,13.99,14.41,4.18,8.66,5.29,17.73,5.29,17.73Z"/>
  <path class="cls-4" d="m232.74,189.05c0,3.5-26.99,3.5-26.99,0-2.93-6.08-7.36-11.99-13.99-14.41-15.91-5.85-30.54-3.77-29.74-15.47.01-.1.01-.21.02-.32.27-3.04,1.15-5.93,2.31-8.85,1.43-3.56,3.29-7.17,4.98-11.17,2.41-5.7,4.48-12.18,4.48-20.42s-1.86-13.78-5.06-17.75c3.48-3.26,8.38-5.59,13.99-5.59,11.18,0,17.51,8.26,17.51,23.62,0,11.48-4.9,16.79-7.75,23.87-.96,2.4-1.68,4.77-1.9,7.25-.88,9.87,13.18,8.11,26.34,12.93,13.16,4.83,15.79,26.32,15.79,26.32Z"/>
  <g class="cls-1">
    <path class="cls-3" d="m150,93.24c7.81,0,14.49,2.11,18.76,7.42,3.2,3.97,5.06,9.73,5.06,17.75s-2.07,14.72-4.48,20.42c-1.69,4-3.55,7.61-4.98,11.17-1.15,2.92-2.04,5.81-2.31,8.85-.01.11-.01.22-.02.32-.79,11.69,13.83,9.62,29.74,15.47,6.63,2.42,11.06,8.33,13.99,14.41,4.18,8.66,5.29,17.73,5.29,17.73,0,8.75-122.09,8.75-122.09,0,0,0,.37-3.01,1.48-7.22,0,0,14.9,2.54,22.9,2.79s75-.75,80.25-1.5.25-13.75-8.75-15.5-24.38-4.12-30.25-14.25-2.38-19.38,2.25-30.62,9.12-24.62,6.38-32.62-13.2-14.6-13.2-14.6Z"/>
  </g>
  <g class="cls-1">
    <path class="cls-3" d="m80.75,191.67c6.75,0,13.49-.87,13.49-2.62,2.93-6.08,7.36-11.99,13.99-14.41,15.91-5.85,30.54-3.77,29.74-15.47-.01-.1-.01-.21-.02-.32-.27-3.04-1.15-5.93-2.31-8.85-1.43-3.56-3.29-7.17-4.98-11.17-2.41-5.7-4.48-12.18-4.48-20.42s1.86-13.78,5.06-17.75c-3.48-3.26-3.46-5.27-9.07-5.27,0,0-7.22,8.7-6.22,25.45s14.12,29.75,11,37.25-17.25,5-26.88,11.5-19.33,22.08-19.33,22.08Z"/>
  </g>
  <g class="cls-1">
    <path class="cls-3" d="m219.25,191.67c-6.75,0-13.49-.87-13.49-2.62-2.93-6.08-7.36-11.99-13.99-14.41-15.91-5.85-30.54-3.77-29.74-15.47.01-.1.01-.21.02-.32.27-3.04,1.15-5.93,2.31-8.85,1.43-3.56,3.29-7.17,4.98-11.17,2.41-5.7,4.48-12.18,4.48-20.42s-1.86-13.78-5.06-17.75c3.48-3.26,3.46-5.27,9.07-5.27,0,0,7.22,8.7,6.22,25.45s-14.12,29.75-11,37.25,17.25,5,26.88,11.5,19.33,22.08,19.33,22.08Z"/>
  </g>
  <path class="cls-5" d="m80.75,195.67c-15.41,0-17.49-3.35-17.49-6.62,0-.16,0-.32.03-.49.12-.98,3.1-23.98,18.38-29.58,4.44-1.63,8.88-2.54,12.81-3.34,9.81-2.01,11.15-2.97,10.93-5.49-.16-1.8-.68-3.74-1.64-6.1-.7-1.74-1.55-3.39-2.45-5.14-2.62-5.09-5.59-10.86-5.59-20.22,0-17.55,7.85-27.62,21.52-27.62,6.17,0,12.1,2.36,16.7,6.65,1.54,1.43,1.7,3.81.38,5.44-2.78,3.43-4.19,8.56-4.19,15.25,0,7.98,2.11,14.02,4.17,18.88.75,1.78,1.56,3.51,2.33,5.18.96,2.07,1.87,4.03,2.68,6.04,1.49,3.72,2.31,6.88,2.59,9.95.01.1.02.2.02.31,0,.04,0,.09.01.14.77,11.54-9.26,13.74-18.96,15.87-4.1.9-8.75,1.92-13.4,3.63-4.52,1.65-8.38,5.62-11.47,11.79-.56,2.87-3.76,5.49-17.39,5.49Zm-9.1-8.69c1.74.34,4.77.69,9.1.69,5.42,0,8.8-.54,10.17-.94,4.04-8.14,9.4-13.47,15.94-15.85,5.15-1.89,10.08-2.97,14.43-3.93,11-2.42,12.94-3.54,12.7-7.46,0-.08-.01-.17-.02-.25,0-.01,0-.02,0-.03-.21-2.31-.84-4.7-2.05-7.72-.73-1.81-1.59-3.68-2.51-5.65-.8-1.73-1.64-3.53-2.44-5.42-2.24-5.27-4.81-12.54-4.81-22,0-6.73,1.24-12.38,3.69-16.87-2.59-1.61-5.55-2.47-8.59-2.47-8.97,0-13.52,6.6-13.52,19.62,0,7.43,2.28,11.87,4.7,16.56.95,1.84,1.92,3.74,2.76,5.81,1.25,3.1,1.95,5.77,2.18,8.38.91,10.31-8.76,12.29-17.29,14.04-3.83.78-7.78,1.59-11.66,3.01-7.73,2.84-11.49,14.1-12.77,20.5Z"/>
  <path class="cls-5" d="m150,217.34c-16.12,0-31.16-.59-42.35-1.66-16.97-1.62-22.7-3.87-22.7-8.91,0-.16,0-.32.03-.48.05-.4,1.24-9.82,5.66-18.98,4.07-8.46,9.53-13.99,16.22-16.43,5.15-1.89,10.08-2.97,14.43-3.93,11-2.42,12.94-3.54,12.7-7.46,0-.08-.01-.16-.02-.25,0-.01,0-.02,0-.04-.21-2.31-.84-4.7-2.05-7.72-.73-1.81-1.59-3.68-2.51-5.65-.8-1.73-1.64-3.53-2.44-5.42-2.24-5.27-4.81-12.54-4.81-22,0-8.56,2.01-15.39,5.97-20.28,4.76-5.9,12.12-8.89,21.88-8.89s17.12,3,21.87,8.92c3.94,4.89,5.95,11.71,5.95,20.26,0,9.42-2.56,16.69-4.8,21.98-.8,1.9-1.64,3.7-2.44,5.43-.92,1.98-1.78,3.84-2.51,5.67-1.2,3.03-1.83,5.42-2.04,7.72,0,.11-.01.21-.02.3-.25,3.91,1.69,5.03,12.69,7.44,4.35.96,9.29,2.04,14.45,3.93,6.68,2.44,12.14,7.97,16.21,16.43,4.42,9.15,5.61,18.58,5.65,18.98.02.16.03.32.03.48,0,5.04-5.73,7.28-22.7,8.91-11.19,1.07-26.23,1.66-42.35,1.66Zm-56.75-12.09c5.28,1.85,24.55,4.09,56.75,4.09s51.46-2.24,56.75-4.09c-.55-2.99-1.89-8.86-4.59-14.47-3.14-6.52-7.1-10.69-11.76-12.39-4.65-1.71-9.31-2.73-13.41-3.63-9.7-2.13-19.73-4.33-18.95-15.86,0-.04,0-.09.01-.13,0-.13.02-.25.03-.36.27-2.98,1.08-6.15,2.57-9.89.81-2.03,1.72-3.99,2.68-6.07.78-1.68,1.58-3.41,2.33-5.19,2.06-4.87,4.17-10.93,4.17-18.86,0-6.67-1.41-11.8-4.18-15.24-3.17-3.94-8.43-5.93-15.64-5.93s-12.49,1.99-15.65,5.92c-2.78,3.44-4.19,8.57-4.19,15.25,0,7.98,2.11,14.02,4.17,18.88.75,1.78,1.56,3.51,2.33,5.18.96,2.07,1.87,4.03,2.68,6.04,1.49,3.72,2.31,6.88,2.59,9.95.01.1.02.2.02.31,0,.05,0,.09.01.14.77,11.54-9.26,13.74-18.96,15.87-4.1.9-8.75,1.92-13.4,3.63-4.67,1.7-8.62,5.87-11.76,12.39-2.72,5.64-4.05,11.49-4.6,14.47Z"/>
  <path class="cls-5" d="m219.25,195.67c-13.63,0-16.83-2.62-17.39-5.49-3.09-6.17-6.95-10.14-11.46-11.79-4.65-1.71-9.31-2.73-13.41-3.63-9.7-2.13-19.73-4.33-18.95-15.86,0-.04,0-.09.01-.13,0-.13.02-.25.03-.36.27-2.98,1.08-6.14,2.57-9.89.81-2.03,1.72-3.99,2.68-6.07.78-1.68,1.58-3.41,2.33-5.19,2.06-4.87,4.17-10.93,4.17-18.86,0-6.67-1.41-11.8-4.18-15.24-1.31-1.63-1.15-3.99.38-5.43,4.58-4.31,10.52-6.68,16.73-6.68,13.67,0,21.51,10.07,21.51,27.62,0,9.37-2.97,15.13-5.59,20.22-.9,1.75-1.75,3.41-2.45,5.14-.96,2.41-1.46,4.3-1.63,6.12-.22,2.51,1.11,3.48,10.92,5.48,3.93.8,8.38,1.71,12.81,3.34,15.28,5.61,18.26,28.61,18.38,29.58.02.16.03.32.03.49,0,3.28-2.08,6.62-17.49,6.62Zm-10.17-8.94c1.38.4,4.76.94,10.17.94,4.32,0,7.35-.35,9.09-.69-1.3-6.4-5.08-17.67-12.77-20.5-3.87-1.42-7.83-2.23-11.66-3.01-8.54-1.74-18.21-3.72-17.29-14.03.23-2.59.92-5.25,2.17-8.38.84-2.08,1.81-3.98,2.76-5.82,2.42-4.7,4.7-9.14,4.7-16.56,0-13.02-4.55-19.62-13.51-19.62-3.06,0-6.03.86-8.61,2.48,2.45,4.49,3.69,10.14,3.69,16.87,0,9.42-2.56,16.69-4.8,21.98-.8,1.9-1.64,3.7-2.44,5.43-.92,1.98-1.78,3.84-2.51,5.67-1.2,3.03-1.83,5.42-2.04,7.72,0,.11-.01.21-.02.3-.25,3.91,1.69,5.03,12.69,7.44,4.35.96,9.29,2.04,14.45,3.93,6.53,2.38,11.89,7.71,15.93,15.85Z"/>
  <g>
    <path class="cls-2" d="m150,35.25c-63.37,0-114.75,51.38-114.75,114.75s51.38,114.75,114.75,114.75,114.75-51.37,114.75-114.75-51.38-114.75-114.75-114.75Z"/>
    <path class="cls-5" d="m274,154h-28.08c-2.21,0-4-1.79-4-4s1.79-4,4-4h28.08c2.21,0,4,1.79,4,4s-1.79,4-4,4Z"/>
    <path class="cls-5" d="m54.08,154h-28.08c-2.21,0-4-1.79-4-4s1.79-4,4-4h28.08c2.21,0,4,1.79,4,4s-1.79,4-4,4Z"/>
    <path class="cls-5" d="m150,278c-2.21,0-4-1.79-4-4v-28.07c0-2.21,1.79-4,4-4s4,1.79,4,4v28.07c0,2.21-1.79,4-4,4Z"/>
    <path class="cls-5" d="m150,58.08c-2.21,0-4-1.79-4-4v-28.08c0-2.21,1.79-4,4-4s4,1.79,4,4v28.08c0,2.21-1.79,4-4,4Z"/>
  </g>
</svg>