<?xml version="1.0" encoding="UTF-8"?>
<svg id="Layer_1" data-name="Layer 1" xmlns="http://www.w3.org/2000/svg" viewBox="0 0 300 300">
  <defs>
    <style>
      .cls-1, .cls-2 {
        fill: none;
      }

      .cls-1, .cls-3, .cls-4, .cls-5, .cls-6 {
        stroke-width: 0px;
      }

      .cls-7 {
        opacity: .1;
      }

      .cls-2 {
        stroke: #434a54;
        stroke-linecap: round;
        stroke-linejoin: round;
        stroke-width: 8px;
      }

      .cls-4 {
        fill: #7069f0;
      }

      .cls-5 {
        fill: #3bc9f5;
      }

      .cls-6 {
        fill: #1f0f58;
      }
    </style>
  </defs>
  <g class="cls-7">
    <path class="cls-3" d="m263.33,230.57c0,15.88-12.78,28.77-28.55,28.77-9.12,0-17.25-4.32-22.46-11.04,4.82,3.79,10.89,6.04,17.47,6.04,15.77,0,28.55-12.89,28.55-28.77,0-6.69-2.26-12.84-6.08-17.73,6.74,5.24,11.07,13.47,11.07,22.72Z"/>
  </g>
  <g class="cls-7">
    <path class="cls-3" d="m136.12,230.57c0,15.88-12.78,28.77-28.55,28.77-9.18,0-17.34-4.37-22.55-11.16,4.8,3.69,10.79,5.88,17.28,5.88,15.77,0,28.55-12.89,28.55-28.77,0-6.62-2.22-12.71-5.94-17.58,6.82,5.26,11.21,13.54,11.21,22.85Z"/>
  </g>
  <polygon class="cls-4" points="179.82 143.09 179.82 166.08 151.27 166.14 146.38 143.09 179.82 143.09"/>
  <polygon class="cls-4" points="213.7 143.09 208.97 166.01 179.82 166.08 179.82 143.09 213.7 143.09"/>
  <path class="cls-5" d="m249.53,184.43H107.38l-17.36-41.34-33.13-78.97h-23.31c-10.1,0-10.1-19.47,0-19.47h37.29l8.15,19.94,10.86,26.54,10.63,25.99,10.63,25.97,9.45,23.09,30.68-.05,28.55-.06,29.15-.07,27.36-.06,13.2-.03c9.59,0,9.59,18.52,0,18.52Z"/>
  <g class="cls-7">
    <path class="cls-3" d="m250.46,184.37s-.61.06-.93.06H107.38l-17.36-41.34-33.13-78.97h-23.31c-5.54,0-8.04-5.85-7.5-11.14.4-.07.83-.11,1.28-.11h37.29l8.15,19.95,10.86,26.54,10.63,25.99,10.63,25.97,9.45,23.09,30.68-.05,28.55-.06,29.15-.07,27.36-.06,26.58.05c-.32,4.2-2.3,7.35-6.23,10.15Z"/>
  </g>
  <polygon class="cls-4" points="135.35 91.14 89.88 91.14 79.02 64.6 129.71 64.6 135.35 91.14"/>
  <polygon class="cls-4" points="179.81 64.6 179.81 91.14 135.35 91.14 129.71 64.6 179.81 64.6"/>
  <polygon class="cls-4" points="229.92 64.6 224.44 91.14 179.81 91.14 179.81 64.6 229.92 64.6"/>
  <polygon class="cls-4" points="244.83 143.09 236.33 165.95 208.97 166.01 213.7 143.09 244.83 143.09"/>
  <polygon class="cls-4" points="254.48 117.12 244.82 143.09 213.7 143.09 219.07 117.12 254.48 117.12"/>
  <polygon class="cls-4" points="264.14 91.14 254.48 117.12 219.07 117.12 224.44 91.14 264.14 91.14"/>
  <polygon class="cls-4" points="274 64.6 264.14 91.14 224.44 91.14 229.92 64.6 274 64.6"/>
  <path class="cls-1" d="m208.97,166l-.02.13.02-.13Z"/>
  <polygon class="cls-4" points="219.07 117.12 213.7 143.09 179.82 143.09 179.82 117.12 219.07 117.12"/>
  <polygon class="cls-4" points="179.81 91.14 179.81 117.12 140.86 117.12 135.35 91.14 179.81 91.14"/>
  <polygon class="cls-4" points="140.86 117.12 100.51 117.12 89.88 91.14 135.35 91.14 140.86 117.12"/>
  <polygon class="cls-4" points="179.82 117.12 179.82 143.09 146.38 143.09 140.86 117.12 179.82 117.12"/>
  <polygon class="cls-4" points="224.44 91.14 219.07 117.12 179.81 117.12 179.81 91.14 224.44 91.14"/>
  <polygon class="cls-4" points="151.27 166.14 120.59 166.19 111.14 143.09 146.38 143.09 151.27 166.14"/>
  <polygon class="cls-4" points="146.37 143.09 111.13 143.09 100.51 117.12 140.86 117.12 146.37 143.09"/>
  <g class="cls-7">
    <path class="cls-3" d="m240.53,154.64l-4.21,11.31-27.36.06-29.15.07-28.55.06-30.68.05-9.45-23.09-10.63-25.97-10.63-25.99-10.86-26.54h18.57s24.56,78.81,38.53,86.32c13.97,7.51,104.41,3.73,104.41,3.73Z"/>
  </g>
  <path class="cls-6" d="m249.53,188.43H107.38c-1.61,0-3.06-.97-3.69-2.45l-17.36-41.34-32.1-76.51h-20.65c-6.71,0-11.58-5.78-11.58-13.73s4.87-13.73,11.58-13.73h37.29c1.62,0,3.09.98,3.7,2.49l48.7,119.04,126.25-.27c6.49,0,11.2,5.58,11.2,13.26s-4.71,13.26-11.19,13.26Zm-139.49-8h139.49c2.53,0,3.19-3.44,3.19-5.26s-.67-5.26-3.19-5.26l-128.93.27h0c-1.62,0-3.09-.98-3.7-2.49l-48.7-119.04h-34.6c-2.83,0-3.58,3.75-3.58,5.73s.75,5.73,3.58,5.73h23.31c1.61,0,3.06.97,3.69,2.45l33.13,78.97,16.33,38.89Z"/>
  <path class="cls-2" d="m234.78,201.8c-15.77,0-28.55,12.88-28.55,28.77s12.78,28.77,28.55,28.77,28.55-12.88,28.55-28.77-12.78-28.77-28.55-28.77Zm0,40.93c-6.68,0-12.08-5.45-12.08-12.16s5.41-12.16,12.08-12.16,12.07,5.45,12.07,12.16-5.41,12.16-12.07,12.16Z"/>
  <path class="cls-6" d="m234.78,246.74c-8.87,0-16.08-7.25-16.08-16.16s7.21-16.16,16.08-16.16,16.07,7.25,16.07,16.16-7.21,16.16-16.07,16.16Zm0-24.33c-4.46,0-8.08,3.66-8.08,8.16s3.63,8.16,8.08,8.16,8.07-3.66,8.07-8.16-3.62-8.16-8.07-8.16Z"/>
  <path class="cls-2" d="m112.92,202.32c-1.74-.34-3.52-.52-5.35-.52-15.77,0-28.55,12.88-28.55,28.77s12.78,28.77,28.55,28.77,28.55-12.88,28.55-28.77c0-14.04-9.99-25.74-23.2-28.25Zm-5.35,40.42c-6.67,0-12.07-5.45-12.07-12.16s5.41-12.16,12.07-12.16c.77,0,1.53.07,2.26.21,5.58,1.07,9.81,6.01,9.81,11.95,0,6.72-5.41,12.16-12.07,12.16Z"/>
  <path class="cls-6" d="m112.92,206.32c-.25,0-.5-.02-.75-.07-2.17-.41-3.6-2.5-3.18-4.68l3.39-17.88c.41-2.17,2.5-3.59,4.68-3.19,2.17.41,3.6,2.5,3.18,4.68l-3.39,17.88c-.36,1.92-2.04,3.26-3.93,3.26Z"/>
  <path class="cls-6" d="m107.57,246.74c-8.86,0-16.07-7.25-16.07-16.16s7.21-16.16,16.07-16.16c1.02,0,2.04.1,3.02.28,7.56,1.45,13.06,8.13,13.06,15.88,0,8.91-7.21,16.16-16.07,16.16Zm0-24.33c-4.45,0-8.07,3.66-8.07,8.16s3.62,8.16,8.07,8.16,8.07-3.66,8.07-8.16c0-3.92-2.76-7.3-6.56-8.02-.48-.09-.99-.14-1.51-.14Z"/>
  <path class="cls-6" d="m206.23,234.57h-70.11c-2.21,0-4-1.79-4-4s1.79-4,4-4h70.11c2.21,0,4,1.79,4,4s-1.79,4-4,4Z"/>
  <path class="cls-6" d="m135.37,95.14h-45.49c-1.62,0-3.09-.98-3.7-2.48l-10.86-26.54c-.5-1.23-.36-2.64.38-3.74.74-1.11,1.99-1.77,3.32-1.77h50.69c1.89,0,3.52,1.32,3.91,3.17l5.56,26.14c.12.39.19.8.19,1.22,0,2.21-1.79,4-4,4Zm-42.8-8h37.84l-3.94-18.54h-41.49l7.59,18.54Z"/>
  <path class="cls-6" d="m179.81,95.14h-44.47c-1.89,0-3.52-1.32-3.91-3.17l-5.64-26.54c-.25-1.18.04-2.41.8-3.35.76-.94,1.9-1.48,3.11-1.48h50.11c2.21,0,4,1.79,4,4v26.54c0,2.21-1.79,4-4,4Zm-41.23-8h37.23v-18.54h-41.17l3.94,18.54Z"/>
  <path class="cls-6" d="m224.44,95.14h-44.63c-2.21,0-4-1.79-4-4v-26.54c0-2.21,1.79-4,4-4h50.11c1.2,0,2.34.54,3.1,1.47.76.93,1.06,2.16.82,3.33l-5.48,26.54c-.38,1.86-2.02,3.19-3.92,3.19Zm-40.63-8h37.37l3.83-18.54h-41.2v18.54Z"/>
  <path class="cls-6" d="m208.97,170.01c-1.2,0-2.34-.54-3.1-1.47-.76-.93-1.06-2.16-.82-3.34l4.73-22.91c.38-1.86,2.02-3.19,3.92-3.19h31.13c1.31,0,2.54.64,3.28,1.72s.92,2.45.46,3.68l-8.5,22.85c-.58,1.56-2.07,2.6-3.74,2.61l-27.36.06h0Zm7.99-22.91l-3.08,14.9,19.67-.04,5.53-14.86h-22.12Z"/>
  <path class="cls-6" d="m236.33,169.95c-2.21,0-4-1.78-4-3.99h0c0-2.22,1.79-4.01,4-4.01s4,1.79,4,4-1.79,4.01-4,4.01Z"/>
  <path class="cls-6" d="m244.82,147.09h-31.12c-1.2,0-2.34-.54-3.1-1.47-.76-.93-1.06-2.16-.82-3.34l5.37-25.97c.38-1.86,2.02-3.19,3.92-3.19h35.41c1.31,0,2.54.64,3.28,1.72.75,1.08.92,2.45.46,3.68l-9.66,25.97c-.58,1.57-2.08,2.61-3.75,2.61Zm-26.21-8h23.43l6.68-17.97h-26.4l-3.72,17.97Z"/>
  <path class="cls-6" d="m254.48,121.12h-35.41c-1.2,0-2.34-.54-3.1-1.47s-1.06-2.16-.82-3.34l5.37-25.98c.38-1.86,2.02-3.19,3.92-3.19h39.7c1.31,0,2.54.64,3.28,1.72.75,1.08.92,2.45.46,3.68l-9.66,25.98c-.58,1.57-2.08,2.61-3.75,2.61Zm-30.5-8h27.72l6.69-17.98h-30.69l-3.72,17.98Z"/>
  <path class="cls-6" d="m264.14,95.14h-39.7c-1.2,0-2.34-.54-3.1-1.47-.76-.93-1.06-2.16-.82-3.33l5.48-26.54c.38-1.86,2.02-3.19,3.92-3.19h44.08c1.31,0,2.54.64,3.28,1.72.75,1.08.92,2.45.47,3.68l-9.86,26.54c-.58,1.57-2.08,2.61-3.75,2.61Zm-34.79-8h32.01l6.89-18.54h-35.07l-3.83,18.54Z"/>
  <path class="cls-6" d="m208.95,170.13c-.24,0-.48-.02-.72-.06-2.17-.39-3.62-2.48-3.22-4.65l.02-.13c.4-2.17,2.48-3.62,4.65-3.22,2.17.4,3.62,2.48,3.22,4.65l-.02.13c-.35,1.93-2.04,3.29-3.93,3.29Z"/>
  <path class="cls-6" d="m213.7,147.09h-33.88c-2.21,0-4-1.79-4-4v-25.97c0-2.21,1.79-4,4-4h39.25c1.2,0,2.34.54,3.1,1.47.76.93,1.06,2.16.82,3.34l-5.37,25.97c-.38,1.86-2.02,3.19-3.92,3.19Zm-29.88-8h26.62l3.72-17.97h-30.34v17.97Z"/>
  <path class="cls-6" d="m179.81,121.12h-38.95c-1.89,0-3.52-1.32-3.91-3.17l-5.51-25.98c-.25-1.18.05-2.41.81-3.35.76-.94,1.9-1.48,3.11-1.48h44.47c2.21,0,4,1.79,4,4v25.98c0,2.21-1.79,4-4,4Zm-35.71-8h31.71v-17.98h-35.53l3.81,17.98Z"/>
  <path class="cls-6" d="m140.88,121.12h-40.37c-1.62,0-3.09-.98-3.7-2.49l-10.63-25.98c-.5-1.23-.36-2.64.38-3.74.74-1.11,1.99-1.77,3.32-1.77h45.47c1.89,0,3.52,1.32,3.91,3.17l5.43,25.59c.12.39.19.8.19,1.22,0,2.21-1.79,4-4,4Zm-37.69-8h32.73l-3.81-17.98h-36.27l7.35,17.98Z"/>
  <path class="cls-6" d="m179.82,147.09h-33.44c-1.89,0-3.52-1.32-3.91-3.17l-5.52-25.97c-.25-1.18.04-2.41.8-3.35.76-.94,1.9-1.48,3.11-1.48h38.96c2.21,0,4,1.79,4,4v25.97c0,2.21-1.79,4-4,4Zm-30.2-8h26.2v-17.97h-30.02l3.82,17.97Z"/>
  <path class="cls-6" d="m219.07,121.12h-39.26c-2.21,0-4-1.79-4-4v-25.98c0-2.21,1.79-4,4-4h44.63c1.2,0,2.34.54,3.1,1.47s1.06,2.16.82,3.34l-5.37,25.98c-.38,1.86-2.02,3.19-3.92,3.19Zm-35.26-8h32l3.72-17.98h-35.72v17.98Z"/>
  <path class="cls-6" d="m120.59,170.19c-1.62,0-3.09-.98-3.7-2.49l-9.45-23.09c-.5-1.23-.36-2.64.38-3.74.74-1.11,1.99-1.77,3.32-1.77h35.24c1.89,0,3.52,1.32,3.91,3.17l4.89,23.04c.25,1.18-.05,2.41-.8,3.35-.76.94-1.9,1.48-3.1,1.48l-30.68.05h0Zm-3.49-23.09l6.17,15.09,23.06-.04-3.19-15.05h-26.04Z"/>
  <path class="cls-6" d="m146.39,147.09s-.01,0-.01,0h-35.24c-1.62,0-3.09-.98-3.7-2.49l-10.63-25.97c-.5-1.23-.36-2.64.38-3.74.74-1.11,1.99-1.77,3.32-1.77h40.35c1.89,0,3.52,1.32,3.91,3.17l5.43,25.58c.12.39.19.8.19,1.22,0,2.21-1.79,4-4,4Zm-32.57-8h27.61l-3.81-17.97h-31.15l7.35,17.97Z"/>
  <path class="cls-6" d="m151.27,170.14c-1.89,0-3.52-1.32-3.91-3.17l-4.89-23.04c-.25-1.18.05-2.41.8-3.35.76-.94,1.9-1.48,3.11-1.48h33.44c2.21,0,4,1.79,4,4v22.98c0,2.21-1.79,4-3.99,4l-28.55.06h0Zm.05-23.04l3.19,15.04,21.31-.04v-14.99h-24.5Z"/>
  <path class="cls-6" d="m179.82,170.08c-1.06,0-2.08-.42-2.83-1.17-.75-.75-1.17-1.77-1.17-2.83v-22.98c0-2.21,1.79-4,4-4h33.88c1.2,0,2.34.54,3.1,1.47.76.93,1.06,2.16.82,3.33l-4.73,22.91c-.38,1.86-2.01,3.19-3.91,3.19l-29.15.07h0Zm4-22.98v14.97l21.89-.05,3.08-14.92h-24.97Z"/>
</svg>