<?xml version="1.0" encoding="UTF-8"?>
<svg id="_Слой_2" data-name="Слой 2" xmlns="http://www.w3.org/2000/svg" viewBox="0 0 248.86 226.39">
  <g id="Layer_1" data-name="Layer 1">
    <g>
      <g opacity=".1">
        <path d="m53.23,100.39c6.3,0,11.68,1.71,15.13,6.02,2.58,3.22,4.08,7.89,4.08,14.4s-1.67,11.94-3.61,16.56c-1.36,3.24-2.86,6.17-4.01,9.06-.93,2.37-1.64,4.71-1.86,7.18-.01.09-.01.18-.02.26-.64,9.48,11.15,7.8,23.99,12.54,5.35,1.96,8.92,6.76,11.28,11.69,3.37,7.03,4.26,14.38,4.26,14.38,0,7.1-98.46,7.1-98.46,0,0,0,88.84,2.21,86.25-6.85-2.59-9.06-5.5-11-15.22-13.59-9.71-2.59-20.04-5.88-20.46-15.03-.43-9.15,9.8-23.96,9.8-39.5s-11.14-17.13-11.14-17.13Z"/>
      </g>
      <g opacity=".1">
        <path d="m195.63,124.97c6.3,0,11.68,1.71,15.13,6.02,2.58,3.22,4.08,7.89,4.08,14.4s-1.67,11.94-3.61,16.56c-1.36,3.24-2.86,6.17-4.01,9.06-.93,2.37-1.64,4.71-1.86,7.18-.01.09-.01.18-.02.26-.64,9.48,11.15,7.8,23.99,12.54,5.35,1.96,8.92,6.76,11.28,11.69,3.37,7.03,4.26,14.38,4.26,14.38,0,7.1-98.46,7.1-98.46,0,0,0,88.84,2.21,86.25-6.85-2.59-9.06-5.5-11-15.22-13.59-9.71-2.59-20.04-5.88-20.46-15.03s9.8-23.96,9.8-39.5-11.14-17.13-11.14-17.13Z"/>
      </g>
      <g opacity=".1">
        <path d="m156.47,4c6.3,0,11.68,1.71,15.13,6.02,2.58,3.22,4.08,7.89,4.08,14.4s-1.67,11.94-3.61,16.56c-1.36,3.24-2.86,6.17-4.01,9.06-.93,2.37-1.64,4.71-1.86,7.18-.01.09-.01.18-.02.26-.64,9.48,11.15,7.8,23.99,12.54,5.35,1.96,8.92,6.76,11.28,11.69,3.37,7.03,4.26,14.38,4.26,14.38,0,7.1-98.46,7.1-98.46,0,0,0,88.84,2.21,86.25-6.85-2.59-9.06-5.5-11-15.22-13.59-9.71-2.59-20.04-5.88-20.46-15.03-.43-9.15,9.8-23.96,9.8-39.5s-11.14-17.13-11.14-17.13Z"/>
      </g>
      <path d="m53.23,201.8c-13.02,0-25.18-.48-34.23-1.35-12.6-1.21-19-2.78-19-7.98,0-.16,0-.32.03-.48.04-.33,1.01-8.09,4.63-15.63,3.37-7.04,7.92-11.66,13.51-13.71,4.2-1.55,8.21-2.44,11.74-3.22,8.87-1.96,9.79-2.76,9.64-5.26,0-.07-.01-.13-.02-.2,0,0,0-.01,0-.02-.16-1.8-.66-3.67-1.6-6.06-.58-1.45-1.27-2.95-2.01-4.55-.65-1.41-1.32-2.87-1.98-4.42-1.83-4.34-3.94-10.32-3.94-18.13,0-7.12,1.67-12.81,4.98-16.92,3.99-4.98,10.13-7.5,18.25-7.5s14.26,2.53,18.25,7.52c3.29,4.1,4.96,9.79,4.96,16.89,0,7.77-2.1,13.76-3.93,18.11-.65,1.56-1.33,3.02-1.98,4.43-.73,1.59-1.43,3.1-2.01,4.56-.94,2.39-1.43,4.26-1.59,6.05,0,.08-.01.16-.02.23-.15,2.49.77,3.29,9.63,5.24,3.54.78,7.54,1.67,11.75,3.22,5.58,2.05,10.13,6.67,13.5,13.71,3.62,7.53,4.59,15.3,4.63,15.62.02.16.03.32.03.48,0,5.2-6.4,6.76-19,7.98-9.05.87-21.21,1.35-34.23,1.35Zm-44.88-11.07c4.88,1.42,20.19,3.07,44.88,3.07s40-1.65,44.88-3.07c-.5-2.52-1.55-6.8-3.52-10.9-2.45-5.11-5.49-8.36-9.06-9.66-3.7-1.37-7.43-2.19-10.71-2.92-7.76-1.71-16.56-3.66-15.88-13.65,0-.04,0-.08,0-.11,0-.11.01-.21.02-.31.22-2.48.9-5.11,2.12-8.22.67-1.67,1.4-3.27,2.18-4.96.62-1.35,1.27-2.75,1.87-4.19,1.63-3.89,3.3-8.71,3.3-15.01,0-5.24-1.08-9.24-3.21-11.9-2.4-3-6.44-4.52-12.01-4.52s-9.61,1.52-12.01,4.51c-2.14,2.65-3.22,6.66-3.22,11.91,0,6.34,1.67,11.15,3.31,15.02.6,1.43,1.25,2.83,1.87,4.18.78,1.69,1.51,3.28,2.17,4.93,1.23,3.09,1.91,5.71,2.14,8.27,0,.08.02.17.02.26,0,.04,0,.08,0,.12.66,10-8.13,11.94-15.89,13.66-3.28.73-7,1.55-10.7,2.91-3.57,1.31-6.62,4.56-9.06,9.66-1.98,4.12-3.03,8.39-3.52,10.9Z" fill="#1f0f58"/>
      <path d="m156.47,105.41c-13.02,0-25.18-.48-34.23-1.35-12.6-1.21-19-2.78-19-7.98,0-.16,0-.32.03-.48.04-.33,1.01-8.09,4.63-15.63,3.37-7.04,7.92-11.66,13.51-13.71,4.2-1.55,8.21-2.44,11.74-3.22,8.87-1.96,9.79-2.76,9.64-5.26,0-.07-.01-.13-.02-.2,0,0,0-.01,0-.02-.16-1.8-.66-3.67-1.6-6.06-.58-1.45-1.27-2.95-2.01-4.54-.65-1.41-1.32-2.87-1.98-4.42-1.83-4.34-3.94-10.32-3.94-18.13,0-7.12,1.67-12.81,4.98-16.91,3.99-4.98,10.13-7.5,18.25-7.5s14.26,2.53,18.25,7.52c3.29,4.1,4.96,9.79,4.96,16.89,0,7.77-2.1,13.76-3.93,18.11-.65,1.56-1.33,3.02-1.98,4.44-.73,1.59-1.42,3.1-2.01,4.55-.94,2.39-1.43,4.26-1.59,6.05,0,.08-.01.16-.02.23-.16,2.49.76,3.29,9.63,5.25,3.54.78,7.54,1.67,11.75,3.22,5.58,2.05,10.13,6.67,13.5,13.71,3.62,7.53,4.59,15.3,4.63,15.62.02.16.03.32.03.48,0,5.2-6.4,6.76-19,7.98-9.05.87-21.21,1.35-34.23,1.35Zm-44.88-11.07c4.88,1.42,20.19,3.07,44.88,3.07s39.99-1.65,44.88-3.07c-.5-2.52-1.55-6.8-3.52-10.9-2.44-5.11-5.49-8.36-9.05-9.66-3.7-1.37-7.43-2.19-10.71-2.92-7.76-1.71-16.56-3.66-15.88-13.65,0-.03,0-.07,0-.1,0-.12.02-.23.03-.34.22-2.45.89-5.09,2.11-8.19.67-1.67,1.4-3.27,2.18-4.95.62-1.36,1.27-2.76,1.87-4.19,1.63-3.89,3.3-8.71,3.3-15.01,0-5.24-1.08-9.24-3.21-11.9-2.4-3-6.44-4.52-12-4.52s-9.62,1.52-12.02,4.51c-2.14,2.65-3.22,6.66-3.22,11.91,0,6.34,1.67,11.15,3.31,15.02.6,1.43,1.25,2.83,1.87,4.18.78,1.69,1.51,3.28,2.17,4.93,1.23,3.09,1.91,5.71,2.14,8.27,0,.08.02.17.02.26,0,.04,0,.08,0,.12.66,10-8.13,11.95-15.89,13.66-3.28.73-7,1.55-10.7,2.91-3.57,1.31-6.62,4.56-9.06,9.66-1.98,4.12-3.03,8.39-3.52,10.9Z" fill="#1f0f58"/>
      <path d="m195.63,226.39c-13.02,0-25.18-.48-34.23-1.35-12.6-1.21-19-2.78-19-7.98,0-.16,0-.32.03-.48.04-.33,1.01-8.09,4.63-15.63,3.37-7.05,7.92-11.66,13.51-13.71,4.2-1.55,8.21-2.44,11.74-3.22,8.87-1.96,9.79-2.76,9.64-5.26,0-.07-.01-.13-.02-.2,0,0,0-.01,0-.02-.16-1.8-.66-3.67-1.6-6.06-.58-1.45-1.27-2.95-2.01-4.55-.65-1.41-1.32-2.87-1.98-4.42-1.83-4.34-3.94-10.32-3.94-18.13,0-7.12,1.67-12.81,4.98-16.91,3.99-4.98,10.13-7.5,18.25-7.5s14.26,2.53,18.25,7.52c3.29,4.1,4.96,9.79,4.96,16.89,0,7.77-2.1,13.76-3.93,18.11-.65,1.56-1.33,3.02-1.98,4.44-.73,1.59-1.43,3.1-2.01,4.56-.94,2.39-1.43,4.26-1.59,6.05,0,.08-.01.16-.02.23-.15,2.49.77,3.29,9.63,5.24,3.54.78,7.55,1.67,11.76,3.22,5.58,2.05,10.13,6.66,13.5,13.71,3.62,7.53,4.59,15.3,4.63,15.62.02.16.03.32.03.48,0,5.2-6.4,6.76-19,7.98-9.05.87-21.21,1.35-34.23,1.35Zm-44.88-11.07c4.88,1.42,20.19,3.07,44.88,3.07s40-1.65,44.88-3.07c-.5-2.52-1.55-6.8-3.52-10.9-2.45-5.11-5.49-8.36-9.06-9.66-3.7-1.37-7.43-2.19-10.72-2.92-7.76-1.71-16.56-3.66-15.88-13.65,0-.04,0-.08,0-.11,0-.11.01-.21.02-.31.22-2.48.9-5.11,2.12-8.21.66-1.67,1.4-3.27,2.18-4.96.62-1.35,1.27-2.76,1.87-4.19,1.63-3.89,3.3-8.71,3.3-15.01,0-5.24-1.08-9.24-3.21-11.89-2.4-3-6.44-4.52-12.01-4.52s-9.61,1.52-12.01,4.51c-2.14,2.65-3.22,6.66-3.22,11.91,0,6.34,1.67,11.15,3.31,15.02.6,1.43,1.25,2.83,1.87,4.18.78,1.69,1.51,3.28,2.17,4.93,1.23,3.09,1.91,5.71,2.14,8.27,0,.08.02.17.02.26,0,.04,0,.08,0,.12.66,10-8.13,11.94-15.89,13.66-3.28.73-7,1.55-10.7,2.91-3.57,1.31-6.62,4.56-9.06,9.66-1.98,4.12-3.03,8.39-3.52,10.9Z" fill="#1f0f58"/>
      <path d="m88.81,171.26c-1.65,0-3.19-1.03-3.77-2.67-.73-2.08.36-4.37,2.45-5.1l49.47-17.4,9-45.48c.43-2.17,2.53-3.58,4.7-3.15,2.17.43,3.58,2.53,3.15,4.7l-9.44,47.72c-.27,1.39-1.26,2.53-2.6,3l-51.62,18.16c-.44.15-.89.23-1.33.23Z" fill="#1f0f58"/>
      <path d="m185.56,185.62c-.81,0-1.63-.25-2.34-.76l-45.14-32.53c-1.79-1.29-2.2-3.79-.91-5.58,1.29-1.79,3.79-2.2,5.58-.91l45.14,32.53c1.79,1.29,2.2,3.79.91,5.58-.78,1.08-2.01,1.66-3.25,1.66Z" fill="#1f0f58"/>
    </g>
  </g>
</svg>