<?xml version="1.0" encoding="UTF-8"?>
<svg id="Tryb_izolacji" data-name="Tryb izolacji" xmlns="http://www.w3.org/2000/svg" viewBox="0 0 300 300">
  <defs>
    <style>
      .cls-1 {
        opacity: .05;
      }

      .cls-2 {
        opacity: .1;
      }

      .cls-3 {
        fill: none;
        stroke: #434a54;
        stroke-linecap: round;
        stroke-linejoin: round;
        stroke-width: 8px;
      }

      .cls-4, .cls-5, .cls-6, .cls-7, .cls-8, .cls-9 {
        stroke-width: 0px;
      }

      .cls-5 {
        fill: #f8d39c;
      }

      .cls-6 {
        fill: #9680d3;
      }

      .cls-7 {
        fill: #70716a;
      }

      .cls-8 {
        fill: #1f0f58;
      }

      .cls-9 {
        fill: #ae8052;
      }
    </style>
  </defs>
  <path class="cls-5" d="m217.65,217.74s-2.73-17.76-9.7-20.6c-6.97-2.85-30.07,5.68-30.07,5.68v-96.3c38.7-5.1,54.45,8.68,73.17,16.79,10.5,47.65-7.68,75.02-33.4,94.44Z"/>
  <g class="cls-2">
    <path class="cls-4" d="m260.91,140.24c0,54.49-29.77,95.46-83.03,96.45v-46.57s17.69-7.59,30.07-5.68c12.38,1.9,15.05,14.23,15.05,14.23,17.47-19.46,23.46-31.58,19.77-67.94-15.66-7.88-31.97-17.2-64.89-12.86v-56.7c37.32.7,56.43,22.78,72.36,54.61,3.25.06,6.41-.1,8.67.04,1.43,6.76,2,17.24,2,24.42Z"/>
  </g>
  <path class="cls-7" d="m274,149.6c0,54.5-42.87,110.57-96.12,111.57v-58.35s23.1-8.52,30.07-5.68c6.97,2.84,9.7,20.6,9.7,20.6,25.72-19.42,43.9-46.78,33.4-94.43,6.26,2.73,12.87,4.82,20.77,5.33,1.42,6.76,2.17,13.78,2.17,20.97Z"/>
  <path class="cls-5" d="m151.12,106.53v142.88c-.6,0-1.2,0-1.82,0-9.62,0-18.9-1.4-27.68-4.05-3.12-.93-6.17-2.02-9.15-3.26-1.79-.74-3.55-1.53-5.28-2.38-1.73-.84-3.44-1.73-5.11-2.68-1.68-.94-3.33-1.93-4.94-2.97-.54-.34-1.07-.69-1.6-1.05-3.19-2.14-6.24-4.46-9.15-6.94-.97-.83-1.93-1.68-2.86-2.55-.94-.87-1.86-1.75-2.77-2.66-7.24-7.23-13.37-15.58-18.13-24.78-.6-1.15-1.17-2.31-1.73-3.49-.55-1.17-1.08-2.36-1.59-3.58-.5-1.2-.99-2.4-1.45-3.63h0c-.46-1.24-.9-2.48-1.32-3.73-3.12-9.36-4.91-19.34-5.14-29.71h0c-.01-.79-.03-1.57-.03-2.36,0-1.08.03-2.16.06-3.24,38.72,2.83,77.79-8.73,99.69-39.85Z"/>
  <g class="cls-2">
    <path class="cls-4" d="m151.12,122.47v-15.95c-21.9,31.13-60.97,42.68-99.69,39.85-.03,1.07-.06,2.15-.06,3.24,0,.79.02,1.57.03,2.35h0c.05,2.44.19,4.85.42,7.23,42.73-.71,79.77-10.76,99.31-36.73Z"/>
  </g>
  <path class="cls-9" d="m271.83,128.63c-7.9-.51-14.51-2.6-20.77-5.33-18.72-8.11-34.48-21.89-73.17-16.79v-56.7c46.23.87,84.62,34.36,93.95,78.82Z"/>
  <g class="cls-1">
    <path class="cls-4" d="m258.29,126.06c4.16,1.32,8.59,2.26,13.53,2.58-9.33-44.45-47.72-77.95-93.95-78.82v11.36c43.45,8.34,70.28,29.66,80.41,64.88Z"/>
  </g>
  <path class="cls-8" d="m271.83,132.63c-.09,0-.17,0-.26,0-7.42-.48-14.24-2.22-22.11-5.65-3.67-1.59-7.27-3.41-10.76-5.18-12.03-6.09-24.47-12.38-44.9-12.38-4.83,0-10.01.36-15.39,1.07-1.14.15-2.29-.2-3.16-.96-.87-.76-1.36-1.86-1.36-3.01v-56.7c0-1.07.43-2.1,1.2-2.85s1.8-1.17,2.88-1.14c23.1.43,45.59,8.96,63.32,24.01,17.39,14.76,29.59,35.19,34.38,57.58.12.39.19.8.19,1.22,0,2.21-1.79,4-4,4,0,0-.01,0-.02,0Zm-78.03-31.22c22.35,0,36.25,7.04,48.52,13.25,3.54,1.79,6.88,3.48,10.33,4.98,4.98,2.17,9.46,3.58,13.96,4.36-10.64-39.49-44.47-67.52-84.72-70.01v48.04c4.12-.41,8.11-.62,11.92-.62Z"/>
  <path class="cls-3" d="m251.05,123.31c-18.72-8.11-34.48-21.89-73.17-16.79v96.3s23.1-8.52,30.07-5.68c6.97,2.84,9.7,20.6,9.7,20.6,25.72-19.42,43.9-46.78,33.4-94.43Zm-46.8,44.32c0-5.71,4.54-10.34,10.15-10.34s10.13,4.63,10.13,10.34h-20.28Z"/>
  <path class="cls-6" d="m151.12,49.83v56.7c-21.9,31.13-60.97,42.68-99.69,39.85,0-.16,0-.31,0-.47.18-5.07.74-10.06,1.65-14.92,8.54-46.21,48.37-81.17,96.21-81.17.62,0,1.22,0,1.82.01Z"/>
  <g class="cls-1">
    <path class="cls-4" d="m151.12,61.17v-11.34c-.6-.01-1.2-.01-1.82-.01-47.84,0-87.67,34.96-96.21,81.17-.91,4.86-1.47,9.85-1.65,14.92,0,.16,0,.31,0,.47,5.12.37,8.17.64,13.26.5,9.69-51.57,39.43-80.08,86.43-85.7Z"/>
  </g>
  <path class="cls-6" d="m121.62,245.37c-42.58-.8-81.49-4.05-95.62-23.72,11.83-16.11,21.58-41.66,25.4-69.67.23,10.37,2.02,20.35,5.14,29.71.41,1.25.85,2.49,1.32,3.72h0c.46,1.23.94,2.44,1.45,3.64.51,1.21,1.04,2.41,1.59,3.58.55,1.17,1.13,2.33,1.73,3.49,4.76,9.2,10.89,17.56,18.13,24.78.9.9,1.83,1.79,2.77,2.66.93.87,1.89,1.72,2.86,2.55,2.91,2.5,5.96,4.81,9.15,6.94.53.36,1.06.71,1.6,1.05,1.61,1.03,3.26,2.02,4.94,2.97,1.67.94,3.38,1.83,5.11,2.68,1.73.84,3.49,1.63,5.28,2.38,2.98,1.23,6.03,2.32,9.15,3.26Z"/>
  <g class="cls-2">
    <path class="cls-4" d="m83.62,243.49c11.89,1.14,24.77,1.63,38,1.88-3.12-.93-6.17-2.02-9.15-3.26-1.79-.74-3.55-1.53-5.28-2.38-1.73-.84-3.44-1.73-5.11-2.68-1.68-.94-3.33-1.93-4.94-2.97-.54-.34-1.07-.69-1.6-1.05-3.19-2.13-6.24-4.45-9.15-6.94-.97-.82-1.93-1.67-2.86-2.55-.94-.86-1.87-1.75-2.77-2.66-7.24-7.23-13.37-15.58-18.13-24.78-.6-1.15-1.18-2.31-1.73-3.49-.55-1.17-1.08-2.36-1.59-3.58-.51-1.19-.99-2.4-1.45-3.63h0c-.47-1.24-.91-2.48-1.32-3.73-3.12-9.36-4.91-19.34-5.14-29.71-1.32,9.66-3.34,19.03-5.91,27.83,3.07,27.2,14.9,48.98,38.13,63.69Z"/>
  </g>
  <path class="cls-8" d="m177.88,265.17c-1.05,0-2.05-.41-2.8-1.15-.77-.75-1.2-1.78-1.2-2.85v-58.35c0-1.68,1.04-3.17,2.62-3.75.72-.27,17.75-6.51,27.59-6.51,2.17,0,3.92.29,5.37.88,5.85,2.38,9.11,10.88,10.77,17.15,26.79-22.41,35.09-49.32,26.92-86.42-.32-1.47.2-2.99,1.37-3.95,1.16-.96,2.76-1.18,4.14-.58,6.98,3.04,12.97,4.58,19.43,5,1.79.12,3.29,1.41,3.66,3.17,1.5,7.13,2.26,14.47,2.26,21.79,0,27.59-10.57,56.16-29.01,78.4-19.46,23.48-44.69,36.68-71.03,37.17-.02,0-.05,0-.07,0Zm4-59.52v51.33c50.71-3.73,88.12-58.71,88.12-107.38,0-5.79-.51-11.58-1.53-17.25-4.06-.47-8-1.35-12.11-2.71,6.54,38.59-5.11,67.74-36.3,91.29-1.12.85-2.61,1.04-3.92.51-1.3-.53-2.23-1.71-2.45-3.1-1.16-7.5-4.36-16.32-7.26-17.5-.16-.07-.82-.28-2.35-.28-5.93,0-16.4,3.12-22.21,5.09Z"/>
  <path class="cls-8" d="m177.88,227.42c-2.21,0-4-1.79-4-4s1.79-4,4-4c6.11,0,12.36-1.95,18.58-5.8,1.88-1.16,4.34-.58,5.51,1.3,1.16,1.88.58,4.34-1.3,5.51-7.5,4.64-15.17,6.99-22.78,6.99Z"/>
  <path class="cls-8" d="m62.64,150.79c-3.79,0-7.66-.14-11.5-.42-2.09-.15-3.71-1.89-3.71-3.99,0-.12,0-.24,0-.36v-.11s0-.1,0-.14c.18-5.2.76-10.42,1.72-15.52,9.04-48.92,51.16-84.43,100.14-84.43.64,0,1.27,0,1.89.01,2.18.04,3.93,1.82,3.93,4v56.7c0,.82-.25,1.63-.73,2.3-19.04,27.06-51.62,41.96-91.75,41.96Zm-7.02-8.17c2.35.11,4.7.17,7.02.17,36.93,0,66.87-13.32,84.48-37.55v-51.4c-44.19,1.03-81.89,33.46-90.1,77.87-.67,3.59-1.14,7.25-1.4,10.91Z"/>
  <path class="cls-8" d="m149.3,253.42c-9.84,0-19.54-1.42-28.83-4.22-3.17-.95-6.38-2.09-9.52-3.39-1.86-.77-3.71-1.6-5.5-2.47-1.85-.9-3.64-1.84-5.33-2.79-1.72-.96-3.45-2-5.13-3.08-.56-.35-1.12-.73-1.69-1.11-3.28-2.21-6.48-4.64-9.5-7.21-1.05-.9-2.05-1.79-2.98-2.65-.97-.9-1.92-1.81-2.87-2.75-7.58-7.57-13.93-16.24-18.87-25.79-.55-1.06-1.12-2.2-1.79-3.6-.58-1.24-1.14-2.5-1.67-3.75-.46-1.11-1-2.41-1.51-3.77-.02-.06-.04-.11-.06-.17-.48-1.29-.91-2.5-1.31-3.69-3.31-9.94-5.11-20.33-5.35-30.9v-.81c-.02-.55-.03-1.09-.03-1.65,0-1.12.03-2.24.06-3.35.03-1.09.51-2.12,1.32-2.86.81-.73,1.88-1.1,2.97-1.02,41.87,3.06,76.91-10.85,96.13-38.17,1-1.43,2.82-2.04,4.48-1.51,1.66.53,2.79,2.07,2.79,3.81v142.88c0,2.18-1.75,3.96-3.93,4-.62.01-1.24.01-1.89.01Zm-87.64-69.26c.45,1.2.93,2.36,1.35,3.36.48,1.14.99,2.29,1.52,3.41.53,1.11,1.08,2.23,1.66,3.34,4.56,8.82,10.42,16.82,17.41,23.8.87.86,1.76,1.71,2.66,2.55.85.79,1.78,1.61,2.74,2.44,2.77,2.37,5.73,4.61,8.78,6.66.51.35,1,.67,1.5.99,1.57,1.01,3.17,1.97,4.76,2.86,1.55.88,3.2,1.74,4.9,2.57,1.65.8,3.35,1.57,5.06,2.28,2.9,1.2,5.85,2.25,8.76,3.12,7.86,2.37,16.04,3.66,24.36,3.86v-127.54c-19.56,21.29-49.28,32.95-84.14,32.95-2.51,0-5.04-.06-7.6-.18,0,.17,0,.33,0,.5v.79c.23,9.73,1.89,19.33,4.95,28.51.4,1.2.83,2.39,1.27,3.58.02.05.03.1.05.14Zm61.29-12.51c-2.21,0-4-1.79-4-4,0-3.5-2.75-6.34-6.14-6.34s-6.15,2.85-6.15,6.34c0,2.21-1.79,4-4,4s-4-1.79-4-4c0-7.91,6.35-14.34,14.15-14.34s14.14,6.43,14.14,14.34c0,2.21-1.79,4-4,4Z"/>
  <path class="cls-8" d="m121.62,249.37s-.05,0-.08,0c-39.51-.74-82.99-3.38-98.79-25.39-1.01-1.41-1-3.3.02-4.7,11.85-16.14,21.07-41.5,24.66-67.84.28-2.07,2.11-3.57,4.19-3.45,2.08.12,3.73,1.82,3.77,3.9.22,9.76,1.88,19.36,4.94,28.54.39,1.18.8,2.33,1.26,3.56.02.06.04.11.06.17.46,1.21.89,2.3,1.33,3.32.5,1.18,1.01,2.33,1.53,3.45.5,1.06,1.04,2.16,1.66,3.34,4.56,8.82,10.42,16.82,17.41,23.8.86.87,1.75,1.72,2.65,2.54.88.83,1.79,1.64,2.74,2.44,2.79,2.39,5.74,4.63,8.79,6.67.52.35,1.01.68,1.51.99,1.57,1.01,3.17,1.97,4.76,2.86,1.55.88,3.2,1.74,4.9,2.57,1.65.8,3.35,1.57,5.06,2.28,2.83,1.17,5.71,2.2,8.57,3.06,1.76.42,3.07,2,3.07,3.89,0,2.21-1.79,4-4,4h-.02Zm-90.62-27.87c12.2,13.68,40.14,17.77,69.39,19.2-.09-.05-.18-.1-.28-.16-1.72-.96-3.45-2-5.13-3.08-.56-.35-1.12-.73-1.69-1.11-3.28-2.2-6.49-4.63-9.5-7.22-1.03-.88-2.05-1.78-2.99-2.66-.95-.87-1.92-1.8-2.86-2.75-7.57-7.55-13.91-16.23-18.85-25.77-.66-1.27-1.25-2.46-1.8-3.63-.57-1.22-1.13-2.47-1.66-3.73-.49-1.15-.99-2.39-1.51-3.77-.02-.05-.04-.1-.05-.15-.49-1.29-.92-2.52-1.33-3.75-.77-2.3-1.45-4.62-2.05-6.97-4.62,17.51-11.5,33.54-19.68,45.53Z"/>
  <path class="cls-8" d="m151.12,227.43c-7.61,0-15.28-2.35-22.78-6.99-1.88-1.16-2.46-3.63-1.3-5.51,1.16-1.88,3.63-2.46,5.51-1.3,6.22,3.85,12.47,5.79,18.57,5.79,2.21,0,4,1.79,4,4s-1.79,4-4,4Z"/>
  <path class="cls-8" d="m151.12,276.94c-2.21,0-4-1.79-4-4v-23.53c0-2.21,1.79-4,4-4s4,1.79,4,4v23.53c0,2.21-1.79,4-4,4Z"/>
  <path class="cls-8" d="m151.12,110.53c-2.21,0-4-1.79-4-4V27.07c0-2.21,1.79-4,4-4s4,1.79,4,4v79.46c0,2.21-1.79,4-4,4Z"/>
  <path class="cls-8" d="m177.88,276.93c-2.21,0-4-1.79-4-4V27.06c0-2.21,1.79-4,4-4s4,1.79,4,4v245.87c0,2.21-1.79,4-4,4Z"/>
</svg>