<?xml version="1.0" encoding="UTF-8"?>
<svg id="_Слой_2" data-name="Слой 2" xmlns="http://www.w3.org/2000/svg" viewBox="0 0 256 169.82">
  <g id="Layer_1" data-name="Layer 1">
    <g>
      <path d="m196.74,118.19c.43-2.18,0-4.32-1.67-6.04l-55.74-60.85c-4.08-.49-11.31,2.67-14.77,4.33-3.63,9.36-11.64,13.4-21.33,15.4,0,0-4.01-29.42,0-35.44,4.01-6.02,21.72-11.37,31.42-11.37s58.84,7.36,58.84,7.36l34.1,66.2s-16.94,15.48-30.84,20.41Z" fill="#fff"/>
      <g opacity=".07">
        <path d="m220.79,103.5c4.11-3.26,6.79-5.71,6.79-5.71l-34.1-66.2s-4.35-.65-10.71-1.57c8.3,22.54,21.77,47.39,38.02,73.48Z"/>
      </g>
      <path d="m196.74,118.19c-1.36,6.94-11.36,14.2-16.72,8.76,6.54,8.8-11.28,21.76-17.82,12.96,5.66,9.88-11.17,20.1-17.15,10.76,4.63,8.39-13.07,19.67-18.43,11.38l-1.57-1.82-7.95-9.22s.83-15.3-8.02-15.3c-2.47,0-4.35.49-5.79,1.33.28-.41,6.46-9.28,6.46-13.04s-4.51-12.04-9.76-12.04c-2.37,0-6.56,3.49-10.54,7.78-.16-.44-5.22-14.63-11.46-14.63-2.41,0-5.69,2.44-8.84,5.73,0,0-3.53-8.41-8.54-10.41-5.01-2.01-10.87,2.01-12.54,6.36l-21.06-16.62L65.77,25.06c24.94-1.91,47.99-2.26,68.87-.84-9.7,0-27.41,5.36-31.42,11.37-4.01,6.02,0,35.44,0,35.44,9.69-2,17.7-6.04,21.33-15.4,3.46-1.67,10.69-4.82,14.77-4.33l55.74,60.85c1.68,1.72,2.11,3.86,1.67,6.04Z" fill="#fff"/>
      <g opacity=".07">
        <path d="m146.53,59.17l-7.21-7.87c-4.08-.49-11.31,2.67-14.77,4.33-3.63,9.36-11.64,13.4-21.33,15.4,0,0-4.01-29.42,0-35.44,4.01-6.02,21.72-11.37,31.42-11.37-10.93-.74-19.56-1.06-31.64-.86,0,0-8.38,1.47-9.62,14.47s-5.12,39.5,5.38,42.75,22.87-3.77,28.62-11.12c5.75-7.36,19.16-10.27,19.16-10.27Z"/>
      </g>
      <g opacity=".07">
        <path d="m76.62,24.32c-3.58.21-7.2.46-10.86.74L27,90.19l8.26,6.52c15.45-24.14,29.31-48.27,41.37-72.38Z"/>
      </g>
      <path d="m125.04,160.24s-1.94,5.58-9.29,5.58c-5.85,0-13.07-7.39-15.78-13.44-.71-1.56-1.11-3.05-1.11-4.28,0-4.33.7-8.85,4.4-11.02h.01c1.43-.85,3.32-1.34,5.79-1.34,8.86,0,8.02,15.3,8.02,15.3l7.95,9.22Z" fill="#fff"/>
      <path d="m109.73,124.02c0,3.76-6.18,12.63-6.46,13.04h-.01c-3.7,2.19-4.4,6.7-4.4,11.03,0,1.23.4,2.72,1.11,4.28,0,0-8.29,2.08-13.31-2.11-2.57-2.14-4.64-5.06-5.94-8.05-1.23-2.86-1.75-5.79-1.25-8.16.55-2.66,5.09-9.05,9.96-14.27h0c3.98-4.3,8.17-7.79,10.54-7.79,5.25,0,9.76,8.19,9.76,12.04Z" fill="#fff"/>
      <path d="m79.48,134.05c-.49,2.38.02,5.31,1.25,8.16,0,0-5.94,7.38-11.11,3.71-3.11-2.21-6.22-6.81-8.2-11.2-1.33-2.95-2.17-5.8-2.17-7.77,0-3.06,4.76-10.72,9.89-16.09,3.15-3.29,6.43-5.73,8.84-5.73,6.25,0,11.3,14.19,11.46,14.63h0c-4.86,5.24-9.41,11.63-9.96,14.28Z" fill="#fff"/>
      <path d="m59.25,126.95c0,1.98.83,4.82,2.17,7.77-.44-.1-12.24-2.77-14.2-7.77-2.01-5.1-.83-15.8.84-20.14,1.66-4.35,7.52-8.37,12.54-6.36,5.01,2.01,8.54,10.41,8.54,10.41-5.12,5.37-9.89,13.03-9.89,16.09Z" fill="#fff"/>
      <g opacity=".07">
        <path d="m205.2,114.22c-2.84,1.6-5.71,2.99-8.47,3.97.43-2.18,0-4.32-1.67-6.04l-55.74-60.85,35.9,20.73,13.24-5.02s-7.84,6.89-6.34,15.05c1.5,8.17,23.08,32.15,23.08,32.15Z"/>
      </g>
      <g opacity=".07">
        <path d="m120.52,155.73l6.09,6.33c5.37,8.29,23.07-3,18.43-11.38,5.98,9.34,22.81-.88,17.15-10.76,6.54,8.8,24.36-4.16,17.82-12.96,5.36,5.45,15.35-1.82,16.72-8.76.43-2.18,0-4.32-1.67-6.04l-16.49-18s11.21,19.66,8.05,24.04c-3.17,4.38-7.1.77-10.64,4.49-3.53,3.72-2.2,8.18-5.53,10.29-3.33,2.1-8.83-.09-11.67,1.76-2.83,1.85-2.75,8.02-5.5,10.35-2.75,2.33-8.25-.95-10.92,1.08-2.67,2.04-.41,5.33-7.08,9.67-6.67,4.33-14.76-.1-14.76-.1Z"/>
      </g>
      <g opacity=".07">
        <path d="m119.28,165.32c4.47-1.37,5.76-5.08,5.76-5.08l-7.95-9.22s.83-15.3-8.02-15.3c0,0-.53,12.97,1.18,18.22s9.04,11.37,9.04,11.37Z"/>
      </g>
      <g opacity=".07">
        <path d="m107.85,118.19c1.18,2.11,1.89,4.31,1.89,5.83,0,3.76-6.18,12.63-6.46,13.04h-.01c-3.7,2.19-4.4,6.7-4.4,11.03,0,1.23.4,2.72,1.11,4.28,0,0-3.63.91-7.54.31,0,0-3.98-7.28-.65-14.12,3.33-6.83,16.06-20.38,16.06-20.38Z"/>
      </g>
      <g opacity=".07">
        <path d="m86.61,113.41c1.7,3.2,2.76,6.16,2.83,6.36h0c-4.86,5.24-9.41,11.63-9.96,14.28-.49,2.38.02,5.31,1.25,8.16,0,0-4.4,5.47-8.92,4.65-5.86-10.58.89-21.83,14.8-33.46Z"/>
      </g>
      <g opacity=".07">
        <path d="m65.88,105.13c2.03,2.81,3.26,5.73,3.26,5.73-5.12,5.37-9.89,13.03-9.89,16.09,0,1.98.83,4.82,2.17,7.77-.25-.06-4.16-.94-7.86-2.61-5.17-12.02.03-20.66,12.32-26.98Z"/>
      </g>
      <path d="m196.74,122.19c-.95,0-1.88-.34-2.62-.97-1.09-.94-1.59-2.39-1.31-3.8.27-1.36-.18-2.03-.6-2.46-.03-.03-.06-.07-.1-.1l-54.55-59.56c-2.29.25-5.85,1.44-9.92,3.3-5.16,11.32-15.87,14.75-23.61,16.35-1.08.22-2.21-.01-3.12-.65-.9-.64-1.5-1.63-1.65-2.72-.99-7.25-3.87-31.44.63-38.2,5.09-7.63,24.29-13.16,34.75-13.16,9.88,0,57.41,7.1,59.43,7.41,1.27.19,2.37.98,2.96,2.12l34.1,66.2c.83,1.61.48,3.57-.86,4.78-.72.65-17.7,16.08-32.2,21.23-.44.15-.89.23-1.34.23Zm1.23-12.79c.88.91,1.57,1.93,2.06,3.04,8.92-4.4,18.33-12.01,22.56-15.61l-31.73-61.6c-17.44-2.59-49.07-7.02-56.22-7.02-9.53,0-25.28,5.38-28.09,9.59-1.55,2.33-1.46,14.73.08,28.24,7.48-2.27,11.93-6.03,14.19-11.87.37-.95,1.08-1.72,1.99-2.16,5-2.41,12.26-5.27,16.99-4.7.95.11,1.83.56,2.47,1.27l55.7,60.81Z" fill="#1f0f58"/>
      <path d="m132.31,168.95c-3.76,0-6.9-1.58-8.88-4.46l-9.37-10.85c-.68-.78-1.02-1.8-.97-2.83.12-2.45-.28-8.22-2.32-10.37-.48-.5-.97-.71-1.71-.71-1.61,0-2.88.26-3.76.78-1.62.95-3.67.65-4.95-.72-1.28-1.37-1.43-3.44-.38-4.99,3.54-5.15,5.7-9.51,5.76-10.79,0-2.28-3.35-7.82-5.64-8.02-.74.23-3.32,1.74-7.73,6.5-.95,1.02-2.36,1.48-3.73,1.2-1.37-.28-2.49-1.24-2.97-2.55-2.65-7.34-6.33-12-7.7-12-.48.04-2.52.92-5.95,4.49-.93.97-2.29,1.41-3.62,1.17-1.33-.25-2.44-1.14-2.96-2.38-1.21-2.85-3.98-7.3-6.34-8.25-.41-.16-.85-.25-1.31-.25-2.49,0-5.22,2.28-6,4.32-.45,1.19-1.45,2.09-2.67,2.43-1.23.34-2.54.07-3.54-.72l-21.06-16.62c-1.58-1.24-1.99-3.46-.96-5.19L62.33,23.02c.67-1.12,1.83-1.84,3.13-1.94,14.92-1.14,29.18-1.72,42.37-1.72,9.41,0,18.52.29,27.07.87,2.15.15,3.8,1.97,3.73,4.13-.07,2.16-1.84,3.86-4,3.86-9.53,0-25.28,5.38-28.09,9.59-1.55,2.33-1.46,14.73.08,28.24,7.48-2.27,11.93-6.03,14.19-11.87.37-.95,1.08-1.72,1.99-2.16,5-2.41,12.26-5.27,16.99-4.7.95.11,1.83.56,2.47,1.27l55.7,60.81c2.46,2.54,3.41,5.93,2.69,9.56-1.38,7.02-8.58,13.44-15.36,13.86-.2,1.31-.62,2.64-1.28,3.94-2.89,5.74-9.68,10.07-15.81,10.07-.41,0-.81-.02-1.2-.06-.28,1.21-.76,2.41-1.42,3.55-2.73,4.72-8.39,8.01-13.76,8.01-1.02,0-2.01-.11-2.95-.33-.24.56-.52,1.12-.84,1.67-3.11,5.28-9.88,9.26-15.73,9.26h0Zm-11.2-19.39l8.53,9.87c.12.14.23.29.34.45.21.32.69,1.07,2.34,1.07,3.03,0,7.16-2.49,8.84-5.33,1.07-1.81.56-2.72.4-3.02-1.04-1.89-.4-4.27,1.45-5.37,1.86-1.1,4.25-.54,5.42,1.28.79,1.24,1.91,1.84,3.42,1.84,2.57,0,5.51-1.73,6.84-4.02.88-1.52.9-2.96.06-4.43-1.05-1.84-.49-4.17,1.28-5.33,1.77-1.16,4.14-.74,5.4.96.42.57,1.17,1.32,2.81,1.32,3.1,0,7.15-2.65,8.66-5.66,1.12-2.24.26-3.4-.07-3.84-1.25-1.69-.99-4.06.61-5.42,1.6-1.37,3.98-1.27,5.45.23.48.49,1.02.71,1.73.71,3.16,0,7.53-3.96,8.21-7.43.27-1.37-.18-2.03-.6-2.46-.03-.03-.06-.07-.1-.1l-54.55-59.56c-2.29.25-5.85,1.44-9.92,3.3-5.16,11.32-15.87,14.75-23.61,16.35-1.08.22-2.21-.01-3.12-.65-.9-.64-1.5-1.63-1.65-2.72-.99-7.25-3.87-31.44.63-38.2,1.47-2.21,4.13-4.25,7.42-6.02-12.24.01-25.4.53-39.17,1.54l-35.91,60.33,14.86,11.73c2.76-3.04,6.78-5.03,10.71-5.03,1.49,0,2.93.28,4.28.82,3.52,1.41,6.3,4.78,8.15,7.7,2.83-2.21,5.39-3.3,7.74-3.3,5.82,0,10.17,6.23,12.85,11.66,5.45-4.81,8.14-4.81,9.16-4.81,7.95,0,13.76,10.55,13.76,16.04,0,2.16-1.1,5-2.61,7.9,2.09.4,3.95,1.43,5.46,3.02,3.94,4.16,4.5,11.31,4.53,14.63Z" fill="#1f0f58"/>
      <path d="m124.55,59.64c-.48,0-.97-.09-1.44-.27-2.06-.8-3.08-3.11-2.29-5.17,1.08-2.8,1.69-6.17,1.8-10.03.06-2.21,1.89-3.95,4.12-3.88,2.21.06,3.95,1.91,3.88,4.12-.14,4.77-.92,9.03-2.33,12.68-.61,1.59-2.13,2.56-3.73,2.56Z" fill="#1f0f58"/>
      <path d="m176.36,76.17c-.77,0-1.52-.09-2.22-.29-2.12-.59-5.98-2.99-14.94-8.73-6.65-4.27-17.79-11.41-20.4-11.89-2.19-.27-3.74-2.26-3.47-4.45.27-2.19,2.28-3.76,4.47-3.48,3.8.47,11.49,5.26,23.71,13.09,5.05,3.24,11.34,7.27,12.82,7.77,1.33.21,6.15-1.95,9.87-4.48,1.82-1.24,4.31-.77,5.56,1.05,1.24,1.82.78,4.31-1.05,5.56-2.77,1.89-9.18,5.85-14.35,5.85Z" fill="#1f0f58"/>
      <path d="m144.81,154.27c-1.1,0-2.19-.45-2.98-1.33l-31.07-34.61c-1.48-1.64-1.34-4.17.3-5.65,1.64-1.48,4.17-1.34,5.65.3l31.07,34.6c1.48,1.64,1.34,4.17-.3,5.65-.76.69-1.72,1.02-2.67,1.02Z" fill="#1f0f58"/>
      <path d="m162.2,143.91c-1.09,0-2.17-.44-2.96-1.3l-34.18-37.45c-1.49-1.63-1.37-4.16.26-5.65,1.63-1.49,4.16-1.37,5.65.26l34.18,37.45c1.49,1.63,1.37,4.16-.26,5.65-.77.7-1.73,1.05-2.7,1.05Z" fill="#1f0f58"/>
      <path d="m180.02,130.95c-1.06,0-2.12-.42-2.91-1.25l-35.64-37.7c-1.52-1.6-1.45-4.14.16-5.65,1.6-1.52,4.14-1.45,5.65.16l35.64,37.7c1.52,1.6,1.45,4.14-.16,5.65-.77.73-1.76,1.09-2.75,1.09Z" fill="#1f0f58"/>
      <path d="m141.64,152.77l3.41-2.09-3.42,2.07c-.1-.16-.19-.32-.29-.49-1.09-1.92-.42-4.36,1.5-5.46,1.92-1.09,4.36-.42,5.46,1.5.05.09.1.18.16.26l-6.8,4.21Z" fill="#1f0f58"/>
      <path d="m115.75,169.82c-8.42,0-16.57-9.43-19.43-15.81-.97-2.12-1.46-4.12-1.46-5.92,0-2.63,0-10.58,6.21-14.37.06-.04.12-.07.17-.11,2.13-1.25,4.76-1.88,7.81-1.88s5.53,1.11,7.52,3.21c3.94,4.16,4.5,11.31,4.53,14.63l6.96,8.06c.93,1.08,1.22,2.58.75,3.92-1.07,3.07-5.02,8.27-13.07,8.27Zm-10.35-29.36s-.07.04-.11.07c-1.04.61-2.43,2.07-2.43,7.58,0,.23.05,1.09.75,2.63,2.47,5.51,8.59,11.1,12.14,11.1,2.06,0,3.4-.63,4.24-1.3l-5.93-6.88c-.68-.78-1.02-1.8-.97-2.83.12-2.45-.28-8.22-2.32-10.37-.48-.5-.97-.71-1.71-.71-1.55,0-2.78.24-3.66.73Z" fill="#1f0f58"/>
      <path d="m95.23,156.89c-4.49,0-8.34-1.23-11.13-3.55-2.95-2.45-5.45-5.84-7.05-9.54-1.6-3.72-2.14-7.47-1.5-10.56.92-4.44,7.37-12.31,10.79-16.02.05-.06.1-.12.15-.18,8.41-9.06,12.22-9.06,13.47-9.06,7.95,0,13.76,10.55,13.76,16.04,0,4.05-3.88,10.54-7.13,15.26-.12.17-.29.39-.43.54-.26.27-.56.51-.88.7-1.04.61-2.43,2.07-2.43,7.58,0,.23.05,1.09.75,2.63.49,1.08.48,2.32-.04,3.39-.52,1.07-1.48,1.85-2.63,2.14-.26.06-2.63.63-5.72.63Zm-2.71-34.57c-.05.06-.1.12-.16.18-5.32,5.72-8.67,11.09-8.97,12.37-.3,1.46.07,3.57,1.01,5.76,1.09,2.53,2.85,4.92,4.82,6.56,1.58,1.32,3.89,1.66,5.67,1.69-.02-.27-.03-.53-.03-.79,0-2.53,0-10.01,5.55-13.94,3.28-4.86,5.26-8.92,5.32-10.15,0-2.28-3.35-7.82-5.64-8.02-.73.23-3.26,1.71-7.58,6.34Z" fill="#1f0f58"/>
      <path d="m72.75,150.95c-1.96,0-3.8-.59-5.44-1.76-3.45-2.45-7.01-7.24-9.53-12.82-1.15-2.54-2.52-6.24-2.52-9.42,0-5.06,6.43-14.07,11-18.85,4.49-4.69,8.32-6.96,11.73-6.96,8.1,0,13.34,12.06,15.22,17.25.16.44.25.92.25,1.38,0,1.01-.38,2-1.07,2.74-5.32,5.72-8.67,11.09-8.97,12.37-.3,1.46.07,3.57,1.01,5.76.59,1.36.37,2.94-.56,4.09-.51.64-5.18,6.23-11.1,6.23Zm5.23-41.82c-.48.04-2.52.92-5.95,4.49-5.11,5.35-8.64,11.79-8.78,13.37,0,.98.48,3.12,1.81,6.08,1.88,4.15,4.64,8,6.87,9.59.35.25.61.29.81.29.99,0,2.3-.84,3.37-1.74-.84-2.84-1.04-5.6-.55-7.97.8-3.84,5.73-10.25,9.26-14.31-2.54-6.06-5.62-9.8-6.85-9.8Z" fill="#1f0f58"/>
      <path d="m61.41,138.73c-.3,0-.59-.03-.89-.1h0s0,0,0,0h0c-4.3-.98-14.57-3.93-17.03-10.21-2.45-6.21-1.12-17.98.83-23.04,2.06-5.38,7.85-9.45,13.47-9.45,1.49,0,2.93.28,4.28.82,6.38,2.55,10.32,11.56,10.75,12.58.62,1.47.3,3.16-.8,4.31-5.11,5.36-8.64,11.79-8.78,13.38,0,.94.44,2.96,1.67,5.75.33.58.52,1.26.52,1.98,0,2.2-1.78,3.99-3.98,4h-.04Zm-3.62-34.81c-2.49,0-5.22,2.28-6,4.32-1.43,3.7-2.42,13.29-.86,17.25.31.8,1.97,1.96,4.42,3.05-.07-.54-.1-1.07-.1-1.59,0-4.39,4.85-11.76,9.11-16.76-1.4-2.54-3.45-5.31-5.25-6.03-.41-.17-.84-.25-1.31-.25Z" fill="#1f0f58"/>
      <path d="m61.43,138.73h-.01c-2.21,0-4-1.79-4-4s1.79-4,4-4,4,1.79,4,4-1.79,4-3.99,4Z" fill="#1f0f58"/>
      <path d="m231.33,103.01c-4.91,0-6.79-1.88-7.46-3.68l-33.95-65.91c-.61-1.14-1.04-3.12.55-5.77,2.95-4.92,15.07-14.52,20.49-14.52,1.92,0,3.58.95,4.43,2.55l40.11,74.54c.17.31.29.64.37.99.35,1.52-.03,3.09-1.08,4.41-3.45,4.35-17.29,7.41-23.46,7.41Zm-.7-8.02c.19.01.42.02.7.02,4.76,0,12.34-2.02,15.75-3.57l-37.51-69.72c-3.5,1.77-9.86,6.78-11.83,9.4l32.9,63.86Z" fill="#1f0f58"/>
      <path d="m18.42,101.06c-5.44,0-13.15-2.88-16.63-7.69-1.73-2.39-2.23-5.09-1.4-7.6.08-.25.19-.49.32-.72L47.26,3.02c.16-.29.36-.55.58-.79,1.39-1.46,3.29-2.23,5.48-2.23,6.8,0,15.93,7.73,18.65,14.05,1.79,4.18.52,6.97-.51,8.36l-2.09,4.37c-.05.11-.11.22-.17.32L30.43,92.24c-.09.14-.18.28-.28.41l-2.73,3.51c-1.39,3.13-4.62,4.9-8.99,4.9Zm-10.38-12.73c.58,1.57,5.85,4.73,10.38,4.73,1.06,0,1.56-.19,1.73-.28.14-.39.35-.76.6-1.09l2.94-3.76L62.24,23.17l2.22-4.64c.11-.24.25-.46.4-.67-.16-.74-1.02-2.52-3.25-4.78-2.91-2.96-6.28-4.86-7.98-5.06L8.04,88.33Z" fill="#1f0f58"/>
    </g>
  </g>
</svg>