<?xml version="1.0" encoding="UTF-8"?>
<svg id="Layer_1" data-name="Layer 1" xmlns="http://www.w3.org/2000/svg" viewBox="0 0 300 300">
  <defs>
    <style>
      .cls-1 {
        opacity: .07;
      }

      .cls-2 {
        opacity: .1;
      }

      .cls-3, .cls-4, .cls-5 {
        stroke-width: 0px;
      }

      .cls-4 {
        fill: #3bc9f5;
      }

      .cls-5 {
        fill: #1f0f58;
      }
    </style>
  </defs>
  <polygon class="cls-4" points="244.55 159.75 244.55 207.24 150.82 258.12 150.82 170.08 184.31 195.86 244.55 159.75"/>
  <polygon class="cls-4" points="150.82 170.08 150.82 258.12 59.46 206.91 59.46 159.48 119.71 193.18 150.82 170.08"/>
  <g class="cls-2">
    <path class="cls-3" d="m60.97,168.02s53.39,36.91,63.46,36.91,27.9-26.31,27.9-26.31l-91.36-51.21v40.61Z"/>
  </g>
  <g class="cls-2">
    <path class="cls-3" d="m243.37,168.02s-53.39,36.91-63.46,36.91-27.9-26.31-27.9-26.31l91.36-51.21v40.61Z"/>
  </g>
  <polygon class="cls-4" points="150.82 170.08 119.71 193.18 59.46 159.48 26 140.75 59.46 118.87 150.82 170.08"/>
  <polygon class="cls-4" points="271.99 143.3 244.55 159.75 184.31 195.86 150.82 170.08 244.55 118.87 271.99 143.3"/>
  <g class="cls-1">
    <path class="cls-3" d="m244.55,118.87l27.44,24.43-27.44,16.45-60.24,36.11s71.87-47.12,72.12-53.39c.25-6.28-11.88-23.6-11.88-23.6Z"/>
  </g>
  <polygon class="cls-4" points="150.82 65.98 59.46 118.87 29.01 93.09 122.06 41.88 150.82 65.98"/>
  <polygon class="cls-4" points="274 94.1 244.55 118.87 150.82 65.98 183.3 41.88 274 94.1"/>
  <g class="cls-1">
    <path class="cls-3" d="m274,94.1l-29.45,24.77s16.4-17.74,16.06-23.77c-.33-6.03-77.31-53.23-77.31-53.23l90.7,52.22Z"/>
  </g>
  <path class="cls-5" d="m150.82,262.12c-.71,0-1.42-.19-2.05-.56-1.21-.72-1.95-2.03-1.95-3.44v-88.04c0-1.52.87-2.92,2.23-3.59,1.37-.67,3-.51,4.21.42l31.33,24.12,57.91-34.71c1.23-.74,2.77-.76,4.03-.05,1.25.71,2.03,2.04,2.03,3.48v47.49c0,1.47-.8,2.82-2.09,3.52l-93.73,50.88c-.6.32-1.25.48-1.91.48Zm4-83.91v73.19l85.73-46.54v-38.05l-54.19,32.48c-1.41.85-3.19.74-4.5-.26l-27.05-20.82Z"/>
  <path class="cls-5" d="m150.82,262.12c-.67,0-1.35-.17-1.96-.51l-91.36-51.21c-1.26-.71-2.04-2.04-2.04-3.49v-47.43c0-1.42.75-2.73,1.98-3.45,1.22-.72,2.74-.73,3.98-.04l57.98,32.44,29.04-21.55c1.21-.9,2.83-1.04,4.18-.36,1.35.68,2.2,2.06,2.2,3.57v88.04c0,1.42-.75,2.73-1.98,3.45-.62.37-1.32.55-2.02.55Zm-87.36-57.56l83.36,46.73v-73.26l-24.73,18.36c-1.26.94-2.96,1.05-4.34.28l-54.29-30.37v38.26Z"/>
  <path class="cls-5" d="m119.71,197.18c-.67,0-1.34-.17-1.95-.51l-93.71-52.43c-1.22-.68-2-1.95-2.04-3.35-.05-1.4.64-2.72,1.81-3.49l33.46-21.88c1.25-.82,2.85-.87,4.15-.14l91.36,51.21c1.18.66,1.95,1.88,2.04,3.23.09,1.35-.52,2.66-1.61,3.47l-31.12,23.1c-.7.52-1.54.79-2.38.79Zm-85.99-56.69l85.69,47.94,24.08-17.87-83.86-47.01-25.91,16.94Z"/>
  <path class="cls-5" d="m184.31,199.86c-.86,0-1.73-.28-2.44-.83l-33.49-25.78c-1.07-.82-1.65-2.13-1.55-3.48.11-1.35.88-2.55,2.07-3.2l93.73-51.21c1.48-.81,3.32-.6,4.58.52l27.44,24.43c.95.85,1.44,2.09,1.32,3.36-.12,1.27-.83,2.4-1.93,3.06l-87.68,52.56c-.64.38-1.35.57-2.06.57Zm-26.19-29.21l26.47,20.38,80.68-48.36-21.27-18.94-85.87,46.92Z"/>
  <path class="cls-5" d="m150.82,174.08c-.71,0-1.41-.19-2.04-.56-1.21-.72-1.96-2.03-1.96-3.44v-104.11c0-1.42.75-2.74,1.98-3.45,1.23-.72,2.74-.73,3.98-.03l93.73,52.89c1.27.71,2.04,2.06,2.03,3.51-.01,1.45-.81,2.79-2.08,3.48l-93.73,51.21c-.6.33-1.26.49-1.92.49Zm4-101.26v90.51l81.49-44.53-81.49-45.99Z"/>
  <path class="cls-5" d="m150.82,174.08c-.67,0-1.35-.17-1.96-.51l-91.36-51.21c-1.25-.7-2.03-2.02-2.04-3.46,0-1.44.75-2.77,2-3.49l91.36-52.89c1.24-.71,2.76-.72,4,0,1.24.71,2,2.04,2,3.47v104.11c0,1.42-.75,2.73-1.98,3.45-.62.37-1.32.55-2.02.55Zm-83.28-55.27l79.28,44.44v-90.34l-79.28,45.9Z"/>
  <path class="cls-5" d="m59.47,122.87c-.93,0-1.85-.32-2.59-.95l-30.45-25.78c-1-.85-1.53-2.14-1.4-3.45.13-1.31.9-2.47,2.05-3.11l93.04-51.21c1.44-.8,3.23-.62,4.5.44l28.77,24.1c1,.84,1.53,2.11,1.42,3.41-.11,1.3-.85,2.46-1.98,3.12l-91.36,52.89c-.62.36-1.31.54-2,.54Zm-23.43-29.08l23.87,20.2,83.98-48.62-22.29-18.68-85.56,47.09Z"/>
  <path class="cls-5" d="m244.55,122.87c-.67,0-1.35-.17-1.96-.52l-93.73-52.89c-1.18-.67-1.94-1.88-2.03-3.23-.08-1.35.52-2.65,1.61-3.46l32.48-24.1c1.28-.95,3-1.05,4.38-.25l90.7,52.22c1.13.65,1.87,1.81,1.99,3.11.12,1.3-.41,2.57-1.41,3.41l-29.45,24.77c-.74.62-1.65.94-2.58.94Zm-86.4-57.35l85.95,48.5,22.95-19.31-83.47-48.06-25.43,18.87Z"/>
</svg>