<?xml version="1.0" encoding="UTF-8"?>
<svg id="Layer_1" data-name="Layer 1" xmlns="http://www.w3.org/2000/svg" viewBox="0 0 300 300">
  <defs>
    <style>
      .cls-1 {
        opacity: .07;
      }

      .cls-2 {
        opacity: .1;
      }

      .cls-3, .cls-4 {
        stroke-width: 0px;
      }

      .cls-4 {
        fill: #1f0f58;
      }
    </style>
  </defs>
  <path class="cls-4" d="m123.32,152.53c-.71,0-1.42-.19-2.05-.57l-59.26-35.46c-1.21-.72-1.95-2.03-1.95-3.43V32.58c0-2.21,1.79-4,4-4h99.74c2.21,0,4,1.79,4,4v88.29c0,1.44-.77,2.77-2.03,3.48-1.25.71-2.79.69-4.03-.05l-34.42-20.6v44.83c0,1.44-.77,2.77-2.03,3.48-.61.35-1.29.52-1.97.52Zm-55.26-41.73l51.26,30.67v-44.83c0-1.44.77-2.77,2.03-3.48,1.25-.71,2.79-.69,4.03.05l34.42,20.6V36.58h-91.74v74.22Z"/>
  <path class="cls-4" d="m181.14,36.58h-17.35c-2.21,0-4-1.79-4-4s1.79-4,4-4h17.35c2.21,0,4,1.79,4,4s-1.79,4-4,4Z"/>
  <g class="cls-2">
    <rect class="cls-3" x="210.05" y="189.14" width="13.93" height="78.27"/>
  </g>
  <g class="cls-2">
    <rect class="cls-3" x="233.34" y="165.66" width="18.31" height="8.4"/>
  </g>
  <g class="cls-2">
    <rect class="cls-3" x="233.34" y="134.84" width="18.31" height="9.06"/>
  </g>
  <g class="cls-2">
    <rect class="cls-3" x="233.34" y="104.02" width="18.31" height="9.55"/>
  </g>
  <g class="cls-2">
    <rect class="cls-3" x="233.34" y="73.19" width="18.31" height="9.82"/>
  </g>
  <g class="cls-2">
    <rect class="cls-3" x="102.99" y="212.38" width="9.74" height="55.04"/>
  </g>
  <g class="cls-2">
    <rect class="cls-3" x="156.32" y="212.38" width="12.06" height="55.04"/>
  </g>
  <g class="cls-2">
    <rect class="cls-3" x="156.32" y="189.14" width="12.06" height="23.23"/>
  </g>
  <path class="cls-4" d="m39.01,102.1c-.7,0-1.41-.18-2.05-.57l-13.01-7.79c-1.9-1.14-2.51-3.59-1.38-5.49,1.13-1.9,3.59-2.51,5.49-1.38l13.01,7.79c1.9,1.14,2.51,3.59,1.38,5.49-.75,1.25-2.08,1.94-3.43,1.94Z"/>
  <path class="cls-4" d="m210.05,271.42h-41.67c-2.21,0-4-1.79-4-4v-74.27h-79.45v74.27c0,2.21-1.79,4-4,4h-41.92c-2.21,0-4-1.79-4-4V98.1c0-1.44.77-2.77,2.03-3.48,1.25-.71,2.79-.69,4.03.05l78.26,46.81v-44.83c0-1.44.77-2.77,2.03-3.48,1.25-.71,2.79-.69,4.03.05l86.73,51.88c1.21.72,1.95,2.03,1.95,3.43v118.89c0,2.21-1.79,4-4,4Zm-37.67-8h33.67v-112.62l-78.73-47.1v44.83c0,1.44-.77,2.77-2.03,3.48-1.25.71-2.79.69-4.03-.05l-78.26-46.81v158.27h33.92v-74.27c0-2.21,1.79-4,4-4h87.45c2.21,0,4,1.79,4,4v74.27Z"/>
  <path class="cls-4" d="m123.32,100.65c-.7,0-1.41-.18-2.05-.57l-10.6-6.34c-1.9-1.13-2.51-3.59-1.38-5.49,1.13-1.9,3.59-2.51,5.49-1.38l10.6,6.34c1.9,1.13,2.51,3.59,1.38,5.49-.75,1.25-2.08,1.95-3.44,1.95Z"/>
  <path class="cls-4" d="m112.73,271.42h-31.8c-2.21,0-4-1.79-4-4v-55.04c0-2.21,1.79-4,4-4h31.8c2.21,0,4,1.79,4,4v55.04c0,2.21-1.79,4-4,4Zm-27.8-8h23.8v-47.04h-23.8v47.04Z"/>
  <path class="cls-4" d="m168.38,271.42h-55.65c-2.21,0-4-1.79-4-4v-55.04c0-2.21,1.79-4,4-4h55.65c2.21,0,4,1.79,4,4v55.04c0,2.21-1.79,4-4,4Zm-51.65-8h47.65v-47.04h-47.65v47.04Z"/>
  <path class="cls-4" d="m274,271.42h-63.95c-2.21,0-4-1.79-4-4v-78.27c0-2.21,1.79-4,4-4h63.95c2.21,0,4,1.79,4,4v78.27c0,2.21-1.79,4-4,4Zm-59.95-8h55.95v-70.27h-55.95v70.27Z"/>
  <path class="cls-4" d="m251.65,193.15h-18.31c-2.21,0-4-1.79-4-4v-23.48c0-2.21,1.79-4,4-4h18.31c2.21,0,4,1.79,4,4v23.48c0,2.21-1.79,4-4,4Zm-14.31-8h10.31v-15.48h-10.31v15.48Z"/>
  <path class="cls-4" d="m251.65,169.66h-18.31c-2.21,0-4-1.79-4-4v-30.82c0-2.21,1.79-4,4-4h18.31c2.21,0,4,1.79,4,4v30.82c0,2.21-1.79,4-4,4Zm-14.31-8h10.31v-22.82h-10.31v22.82Z"/>
  <path class="cls-4" d="m251.65,138.84h-18.31c-2.21,0-4-1.79-4-4v-30.82c0-2.21,1.79-4,4-4h18.31c2.21,0,4,1.79,4,4v30.82c0,2.21-1.79,4-4,4Zm-14.31-8h10.31v-22.82h-10.31v22.82Z"/>
  <path class="cls-4" d="m251.65,108.02h-18.31c-2.21,0-4-1.79-4-4v-30.82c0-2.21,1.79-4,4-4h18.31c2.21,0,4,1.79,4,4v30.82c0,2.21-1.79,4-4,4Zm-14.31-8h10.31v-22.82h-10.31v22.82Z"/>
  <path class="cls-4" d="m259.98,77.19h-8.33c-2.21,0-4-1.79-4-4s1.79-4,4-4h8.33c2.21,0,4,1.79,4,4s-1.79,4-4,4Z"/>
  <path class="cls-4" d="m233.34,77.19h-8.82c-2.21,0-4-1.79-4-4s1.79-4,4-4h8.82c2.21,0,4,1.79,4,4s-1.79,4-4,4Z"/>
  <path class="cls-4" d="m259.98,108.02h-8.33c-2.21,0-4-1.79-4-4s1.79-4,4-4h8.33c2.21,0,4,1.79,4,4s-1.79,4-4,4Z"/>
  <path class="cls-4" d="m233.34,108.02h-8.82c-2.21,0-4-1.79-4-4s1.79-4,4-4h8.82c2.21,0,4,1.79,4,4s-1.79,4-4,4Z"/>
  <path class="cls-4" d="m259.98,138.84h-8.33c-2.21,0-4-1.79-4-4s1.79-4,4-4h8.33c2.21,0,4,1.79,4,4s-1.79,4-4,4Z"/>
  <path class="cls-4" d="m233.34,138.84h-8.82c-2.21,0-4-1.79-4-4s1.79-4,4-4h8.82c2.21,0,4,1.79,4,4s-1.79,4-4,4Z"/>
  <path class="cls-4" d="m259.98,169.66h-8.33c-2.21,0-4-1.79-4-4s1.79-4,4-4h8.33c2.21,0,4,1.79,4,4s-1.79,4-4,4Z"/>
  <path class="cls-4" d="m233.34,169.66h-8.82c-2.21,0-4-1.79-4-4s1.79-4,4-4h8.82c2.21,0,4,1.79,4,4s-1.79,4-4,4Z"/>
  <path class="cls-4" d="m168.38,216.38h-87.45c-2.21,0-4-1.79-4-4v-23.23c0-2.21,1.79-4,4-4h87.45c2.21,0,4,1.79,4,4v23.23c0,2.21-1.79,4-4,4Zm-83.45-8h79.45v-15.23h-79.45v15.23Z"/>
  <path class="cls-4" d="m64.06,36.58h-17.35c-2.21,0-4-1.79-4-4s1.79-4,4-4h17.35c2.21,0,4,1.79,4,4s-1.79,4-4,4Z"/>
  <g class="cls-1">
    <path class="cls-3" d="m39.01,116.57s83.98,54.5,91.73,48,4.75-45.14,4.75-45.14l57.83,40.81-.33,108.67h17.07v-120.36l-46.26-27.67-40.47-24.22v51.89l-59.27-35.46-25.05-14.98v18.47h0Z"/>
  </g>
</svg>